<svg width="24" height="24" viewBox="0 0 24 24" fill="none" xmlns="http://www.w3.org/2000/svg">
<path d="M1 2H4.4335L5.4205 4.1H12.7883C12.7883 4.5 12.7883 5.92152 12.7883 6.2L19.5 10L19 11L18.115 12.4685C17.758 13.109 17.065 13.55 16.2775 13.55H8.455L7.51 15.2615L7.4785 15.3875C7.4785 15.4571 7.50616 15.5239 7.55538 15.5731C7.60461 15.6223 7.67138 15.65 7.741 15.65H14.7992V17.75H7.3C6.1345 17.75 5.2 16.805 5.2 15.65C5.2 15.2825 5.2945 14.936 5.452 14.642L6.88 12.0695L3.1 4.1H1V2ZM7.3 18.8C7.85695 18.8 8.3911 19.0213 8.78492 19.4151C9.17875 19.8089 9.4 20.343 9.4 20.9C9.4 21.457 9.17875 21.9911 8.78492 22.3849C8.3911 22.7788 7.85695 23 7.3 23C6.1345 23 5.2 22.055 5.2 20.9C5.2 19.7345 6.1345 18.8 7.3 18.8ZM16.5 11.45L17.5 10H19H19.5L12.7883 6.2H6.397L8.875 11.45H16.5Z" fill="black"/>
<path d="M16.015 18.8C16.572 18.8 17.1061 19.0213 17.4999 19.4151C17.8937 19.8089 18.115 20.343 18.115 20.9C18.115 21.457 17.8937 21.9911 17.4999 22.3849C17.1061 22.7788 16.572 23 16.015 23C14.8495 23 13.915 22.055 13.915 20.9C13.915 19.7345 14.8495 18.8 16.015 18.8Z" fill="black"/>
<path d="M19.1429 1C18.1199 1 17.1388 1.42143 16.4154 2.17157C15.6921 2.92172 15.2857 3.93913 15.2857 5H14L15.6671 6.72889L15.6971 6.79111L17.4286 5H16.1429C16.1429 4.17488 16.4589 3.38356 17.0215 2.80011C17.5841 2.21667 18.3472 1.88889 19.1429 1.88889C19.9385 1.88889 20.7016 2.21667 21.2642 2.80011C21.8268 3.38356 22.1429 4.17488 22.1429 5C22.1429 5.82512 21.8268 6.61644 21.2642 7.19989C20.7016 7.78333 19.9385 8.11111 19.1429 8.11111C18.3157 8.11111 17.5657 7.76 17.0257 7.19556L16.4171 7.82667C17.1157 8.55556 18.0714 9 19.1429 9C20.1658 9 21.1469 8.57857 21.8703 7.82843C22.5936 7.07828 23 6.06087 23 5C23 3.93913 22.5936 2.92172 21.8703 2.17157C21.1469 1.42143 20.1658 1 19.1429 1Z" fill="black" stroke="black" stroke-width="0.5"/>
<path d="M23.6201 17.7216L22.3221 17.7216L20.9873 17.7216L20.9873 20.1525L18.8747 20.1525L18.8747 17.7216L17.5 17.7216L16.0624 17.7216L16.0505 15.6307L17.5 15.6307L18.8747 15.6307L18.8747 13.0635L20.9873 13.0635L20.9873 15.6307L22.3221 15.6307L23.6201 15.6307L23.6201 17.7216Z" fill="black"/>
</svg>
