<svg width="192" height="24" viewBox="0 0 192 24" fill="none" xmlns="http://www.w3.org/2000/svg">
<path d="M0.253906 23V0.988281H4.32812V10.4219H4.41016L12.5039 0.988281H17.6172L9.05859 10.6406L17.7539 23H12.8594L6.48828 13.5117L4.32812 15.9727V23H0.253906ZM19.5312 4.84375V0.6875H23.5781V4.84375H19.5312ZM19.6406 23V6.89453H23.4961V23H19.6406ZM27.5156 23V0.277344H31.3711V8.34375C32.4284 7.04948 33.7318 6.40234 35.2812 6.40234C37.25 6.40234 38.8815 7.15885 40.1758 8.67188C41.4883 10.1849 42.1445 12.2721 42.1445 14.9336C42.1445 16.4284 41.9349 17.75 41.5156 18.8984C41.0964 20.0469 40.5404 20.9492 39.8477 21.6055C39.1732 22.2435 38.4531 22.7174 37.6875 23.0273C36.9219 23.3372 36.138 23.4922 35.3359 23.4922C34.4427 23.4922 33.6224 23.2643 32.875 22.8086C32.1458 22.3346 31.6172 21.7878 31.2891 21.168V23H27.5156ZM31.3438 14.9336C31.3438 16.556 31.6445 17.832 32.2461 18.7617C32.8659 19.6914 33.6953 20.1562 34.7344 20.1562C35.7188 20.1562 36.5299 19.7188 37.168 18.8438C37.806 17.9505 38.125 16.6471 38.125 14.9336C38.125 13.3294 37.8242 12.0625 37.2227 11.1328C36.6211 10.2031 35.7917 9.73828 34.7344 9.73828C33.6589 9.73828 32.8203 10.2214 32.2188 11.1875C31.6354 12.1354 31.3438 13.3841 31.3438 14.9336ZM47.9961 14.9609C47.9961 16.7839 48.3424 18.1055 49.0352 18.9258C49.7461 19.7461 50.5573 20.1562 51.4688 20.1562C52.362 20.1562 53.1641 19.7461 53.875 18.9258C54.6042 18.0872 54.9688 16.7656 54.9688 14.9609C54.9688 13.138 54.6133 11.8164 53.9023 10.9961C53.1914 10.1576 52.3802 9.73828 51.4688 9.73828C50.5573 9.73828 49.7461 10.1484 49.0352 10.9688C48.3424 11.7891 47.9961 13.1198 47.9961 14.9609ZM43.9766 14.9609C43.9766 12.5729 44.6055 10.5495 45.8633 8.89062C47.1211 7.23177 48.9896 6.40234 51.4688 6.40234C53.1458 6.40234 54.5677 6.82161 55.7344 7.66016C56.901 8.4987 57.7305 9.54688 58.2227 10.8047C58.7148 12.0443 58.9609 13.4297 58.9609 14.9609C58.9609 15.6901 58.8971 16.4193 58.7695 17.1484C58.6419 17.8594 58.3958 18.6068 58.0312 19.3906C57.6849 20.1745 57.2383 20.8672 56.6914 21.4688C56.1628 22.0521 55.4427 22.5352 54.5312 22.918C53.638 23.3008 52.6172 23.4922 51.4688 23.4922C50.3385 23.4922 49.3268 23.3099 48.4336 22.9453C47.5404 22.5807 46.8203 22.1159 46.2734 21.5508C45.7266 20.9674 45.2708 20.293 44.9062 19.5273C44.5599 18.7435 44.3138 17.987 44.168 17.2578C44.0404 16.5104 43.9766 15.7448 43.9766 14.9609ZM68.9961 23V0.988281H83.2148V4.48828H73.0703V10.2578H82.1758V13.7031H73.0703V23H68.9961ZM85.1836 17.0938V6.89453H89.1211V16.6562C89.1211 18.9896 89.9141 20.1562 91.5 20.1562C92.4661 20.1562 93.2227 19.737 93.7695 18.8984C94.3164 18.0417 94.5898 17.0299 94.5898 15.8633V6.89453H98.4727V23H94.7266V21.332H94.6719C94.3802 21.8971 93.8789 22.3984 93.168 22.8359C92.4753 23.2734 91.6367 23.4922 90.6523 23.4922C90.0326 23.4922 89.431 23.401 88.8477 23.2188C88.2826 23.0365 87.7083 22.7357 87.125 22.3164C86.5417 21.8789 86.0677 21.2135 85.7031 20.3203C85.3568 19.4271 85.1836 18.3516 85.1836 17.0938ZM102.082 23V6.89453H105.828V8.42578C106.156 7.87891 106.639 7.40495 107.277 7.00391C107.934 6.60286 108.69 6.40234 109.547 6.40234C110.385 6.40234 111.069 6.5026 111.598 6.70312V10.2852C110.96 10.0846 110.285 9.98438 109.574 9.98438C108.408 9.98438 107.514 10.4401 106.895 11.3516C106.293 12.263 105.992 13.4844 105.992 15.0156V23H102.082ZM113.348 23V6.89453H117.121V8.67188C117.395 8.125 117.887 7.61458 118.598 7.14062C119.327 6.64844 120.266 6.40234 121.414 6.40234C124.932 6.40234 126.691 8.48958 126.691 12.6641V23H122.809V13.1289C122.809 11.8893 122.617 11.0143 122.234 10.5039C121.852 9.99349 121.286 9.73828 120.539 9.73828C119.591 9.73828 118.807 10.1211 118.188 10.8867C117.568 11.6523 117.258 12.6094 117.258 13.7578V23H113.348ZM130.246 4.84375V0.6875H134.293V4.84375H130.246ZM130.355 23V6.89453H134.211V23H130.355ZM136.727 10.2031V6.89453H139.133V2.21875H143.016V6.89453H146.516V10.2031H143.016V17.6953C143.016 19.0078 143.59 19.6641 144.738 19.6641H146.543V23H144.246C142.678 23 141.43 22.599 140.5 21.7969C139.589 20.9948 139.133 19.7096 139.133 17.9414V10.2031H136.727ZM148.949 17.0938V6.89453H152.887V16.6562C152.887 18.9896 153.68 20.1562 155.266 20.1562C156.232 20.1562 156.988 19.737 157.535 18.8984C158.082 18.0417 158.355 17.0299 158.355 15.8633V6.89453H162.238V23H158.492V21.332H158.438C158.146 21.8971 157.645 22.3984 156.934 22.8359C156.241 23.2734 155.402 23.4922 154.418 23.4922C153.798 23.4922 153.197 23.401 152.613 23.2188C152.048 23.0365 151.474 22.7357 150.891 22.3164C150.307 21.8789 149.833 21.2135 149.469 20.3203C149.122 19.4271 148.949 18.3516 148.949 17.0938ZM165.848 23V6.89453H169.594V8.42578C169.922 7.87891 170.405 7.40495 171.043 7.00391C171.699 6.60286 172.456 6.40234 173.312 6.40234C174.151 6.40234 174.835 6.5026 175.363 6.70312V10.2852C174.725 10.0846 174.051 9.98438 173.34 9.98438C172.173 9.98438 171.28 10.4401 170.66 11.3516C170.059 12.263 169.758 13.4844 169.758 15.0156V23H165.848ZM176.238 14.8789C176.238 12.2721 176.949 10.2122 178.371 8.69922C179.811 7.16797 181.616 6.40234 183.785 6.40234C185.9 6.40234 187.659 7.17708 189.062 8.72656C190.484 10.276 191.195 12.2995 191.195 14.7969C191.195 15.4714 191.177 15.9727 191.141 16.3008H180.203C180.203 17.4128 180.54 18.3698 181.215 19.1719C181.908 19.974 182.846 20.375 184.031 20.375C184.87 20.375 185.608 20.1654 186.246 19.7461C186.902 19.3086 187.395 18.7617 187.723 18.1055L190.977 19.2539C190.466 20.457 189.6 21.4688 188.379 22.2891C187.176 23.0911 185.69 23.4922 183.922 23.4922C181.661 23.4922 179.811 22.7174 178.371 21.168C176.949 19.6003 176.238 17.5039 176.238 14.8789ZM180.23 13.5938H187.23C187.23 12.4635 186.921 11.4974 186.301 10.6953C185.699 9.89323 184.861 9.49219 183.785 9.49219C182.691 9.49219 181.826 9.90234 181.188 10.7227C180.568 11.5247 180.249 12.4818 180.23 13.5938Z" fill="black"/>
</svg>
