<svg width="183" height="23" viewBox="0 0 183 23" fill="none" xmlns="http://www.w3.org/2000/svg">
<mask id="path-1-outside-1_1_6" maskUnits="userSpaceOnUse" x="-1" y="-1" width="185" height="25" fill="black">
<rect fill="white" x="-1" y="-1" width="185" height="25"/>
<path d="M15.0488 22H12.0808L4.9968 12.452L2.9528 14.244V22H0.432797V2.008H2.9528V11.864C3.5128 11.2293 4.08213 10.5947 4.6608 9.96C5.23946 9.32533 5.81813 8.69067 6.3968 8.056L11.8008 2.008H14.7408L6.8168 10.716L15.0488 22ZM19.8967 6.992V22H17.4327V6.992H19.8967ZM18.6927 1.364C19.0661 1.364 19.3927 1.49467 19.6727 1.756C19.9714 1.99867 20.1207 2.39067 20.1207 2.932C20.1207 3.45467 19.9714 3.84667 19.6727 4.108C19.3927 4.36933 19.0661 4.5 18.6927 4.5C18.2821 4.5 17.9367 4.36933 17.6567 4.108C17.3767 3.84667 17.2367 3.45467 17.2367 2.932C17.2367 2.39067 17.3767 1.99867 17.6567 1.756C17.9367 1.49467 18.2821 1.364 18.6927 1.364ZM27.1155 5.9C27.1155 6.53467 27.0968 7.132 27.0595 7.692C27.0408 8.23333 27.0128 8.66267 26.9755 8.98H27.1155C27.5448 8.34533 28.1328 7.81333 28.8795 7.384C29.6262 6.95467 30.5875 6.74 31.7635 6.74C33.6302 6.74 35.1235 7.39333 36.2435 8.7C37.3822 9.988 37.9515 11.92 37.9515 14.496C37.9515 16.2133 37.6902 17.6507 37.1675 18.808C36.6635 19.9653 35.9448 20.8333 35.0115 21.412C34.0782 21.9907 32.9955 22.28 31.7635 22.28C30.5875 22.28 29.6262 22.0653 28.8795 21.636C28.1328 21.2067 27.5448 20.6933 27.1155 20.096H26.9195L26.4155 22H24.6515V0.719999H27.1155V5.9ZM31.3435 8.784C30.2795 8.784 29.4395 8.98933 28.8235 9.4C28.2075 9.792 27.7688 10.408 27.5075 11.248C27.2462 12.0693 27.1155 13.124 27.1155 14.412V14.524C27.1155 16.372 27.4142 17.7907 28.0115 18.78C28.6275 19.7507 29.7568 20.236 31.3995 20.236C32.7435 20.236 33.7422 19.7413 34.3955 18.752C35.0675 17.7627 35.4035 16.3347 35.4035 14.468C35.4035 12.5827 35.0675 11.164 34.3955 10.212C33.7422 9.26 32.7248 8.784 31.3435 8.784ZM54.926 14.468C54.926 15.7187 54.758 16.8293 54.422 17.8C54.1047 18.752 53.638 19.564 53.022 20.236C52.4247 20.908 51.6874 21.4213 50.81 21.776C49.9514 22.112 48.99 22.28 47.926 22.28C46.9367 22.28 46.022 22.112 45.182 21.776C44.342 21.4213 43.614 20.908 42.998 20.236C42.382 19.564 41.8967 18.752 41.542 17.8C41.206 16.8293 41.038 15.7187 41.038 14.468C41.038 12.8067 41.318 11.4067 41.878 10.268C42.438 9.11067 43.2407 8.23333 44.286 7.636C45.3314 7.02 46.5727 6.712 48.01 6.712C49.3727 6.712 50.5674 7.02 51.594 7.636C52.6394 8.23333 53.4514 9.11067 54.03 10.268C54.6274 11.4067 54.926 12.8067 54.926 14.468ZM43.586 14.468C43.586 15.644 43.7354 16.6707 44.034 17.548C44.3514 18.4067 44.8367 19.0693 45.49 19.536C46.1434 20.0027 46.974 20.236 47.982 20.236C48.99 20.236 49.8207 20.0027 50.474 19.536C51.1274 19.0693 51.6034 18.4067 51.902 17.548C52.2194 16.6707 52.378 15.644 52.378 14.468C52.378 13.2733 52.2194 12.256 51.902 11.416C51.5847 10.576 51.0994 9.932 50.446 9.484C49.8114 9.01733 48.9807 8.784 47.954 8.784C46.4234 8.784 45.3127 9.288 44.622 10.296C43.9314 11.304 43.586 12.6947 43.586 14.468ZM67.3473 22H64.8273V2.008H75.9993V4.22H67.3473V11.304H75.4673V13.516H67.3473V22ZM91.5549 6.992V22H89.5389L89.1749 20.012H89.0629C88.7455 20.5347 88.3349 20.964 87.8309 21.3C87.3269 21.636 86.7762 21.8787 86.1789 22.028C85.5815 22.196 84.9562 22.28 84.3029 22.28C83.1082 22.28 82.1002 22.0933 81.2789 21.72C80.4762 21.328 79.8695 20.7307 79.4589 19.928C79.0482 19.1253 78.8429 18.0893 78.8429 16.82V6.992H81.3349V16.652C81.3349 17.8467 81.6055 18.7427 82.1469 19.34C82.6882 19.9373 83.5282 20.236 84.6669 20.236C85.7869 20.236 86.6642 20.0307 87.2989 19.62C87.9522 19.1907 88.4095 18.5747 88.6709 17.772C88.9509 16.9507 89.0909 15.9613 89.0909 14.804V6.992H91.5549ZM103.319 6.712C103.599 6.712 103.898 6.73067 104.215 6.768C104.551 6.78667 104.841 6.824 105.083 6.88L104.775 9.148C104.533 9.092 104.262 9.04533 103.963 9.008C103.683 8.97067 103.413 8.952 103.151 8.952C102.573 8.952 102.022 9.07333 101.499 9.316C100.977 9.55867 100.51 9.904 100.099 10.352C99.6888 10.7813 99.3621 11.304 99.1195 11.92C98.8955 12.536 98.7835 13.2267 98.7835 13.992V22H96.3195V6.992H98.3355L98.6155 9.736H98.7275C99.0448 9.176 99.4275 8.672 99.8755 8.224C100.323 7.75733 100.837 7.39333 101.415 7.132C101.994 6.852 102.629 6.712 103.319 6.712ZM115.11 6.712C116.902 6.712 118.255 7.15067 119.17 8.028C120.085 8.88667 120.542 10.2867 120.542 12.228V22H118.106V12.396C118.106 11.1827 117.835 10.2773 117.294 9.68C116.753 9.08267 115.903 8.784 114.746 8.784C113.085 8.784 111.937 9.25067 111.302 10.184C110.667 11.1173 110.35 12.4613 110.35 14.216V22H107.886V6.992H109.874L110.238 9.036H110.378C110.714 8.51333 111.125 8.084 111.61 7.748C112.114 7.39333 112.665 7.132 113.262 6.964C113.859 6.796 114.475 6.712 115.11 6.712ZM127.658 6.992V22H125.194V6.992H127.658ZM126.454 1.364C126.828 1.364 127.154 1.49467 127.434 1.756C127.733 1.99867 127.882 2.39067 127.882 2.932C127.882 3.45467 127.733 3.84667 127.434 4.108C127.154 4.36933 126.828 4.5 126.454 4.5C126.044 4.5 125.698 4.36933 125.418 4.108C125.138 3.84667 124.998 3.45467 124.998 2.932C124.998 2.39067 125.138 1.99867 125.418 1.756C125.698 1.49467 126.044 1.364 126.454 1.364ZM137.425 20.264C137.799 20.264 138.181 20.236 138.573 20.18C138.965 20.1053 139.283 20.0307 139.525 19.956V21.832C139.264 21.9627 138.891 22.0653 138.405 22.14C137.92 22.2333 137.453 22.28 137.005 22.28C136.221 22.28 135.493 22.1493 134.821 21.888C134.168 21.608 133.636 21.132 133.225 20.46C132.815 19.788 132.609 18.8453 132.609 17.632V8.896H130.481V7.72L132.637 6.74L133.617 3.548H135.073V6.992H139.413V8.896H135.073V17.576C135.073 18.4907 135.288 19.172 135.717 19.62C136.165 20.0493 136.735 20.264 137.425 20.264ZM155.074 6.992V22H153.058L152.694 20.012H152.582C152.265 20.5347 151.854 20.964 151.35 21.3C150.846 21.636 150.296 21.8787 149.698 22.028C149.101 22.196 148.476 22.28 147.822 22.28C146.628 22.28 145.62 22.0933 144.798 21.72C143.996 21.328 143.389 20.7307 142.978 19.928C142.568 19.1253 142.362 18.0893 142.362 16.82V6.992H144.854V16.652C144.854 17.8467 145.125 18.7427 145.666 19.34C146.208 19.9373 147.048 20.236 148.186 20.236C149.306 20.236 150.184 20.0307 150.818 19.62C151.472 19.1907 151.929 18.5747 152.19 17.772C152.47 16.9507 152.61 15.9613 152.61 14.804V6.992H155.074ZM166.839 6.712C167.119 6.712 167.418 6.73067 167.735 6.768C168.071 6.78667 168.36 6.824 168.603 6.88L168.295 9.148C168.052 9.092 167.782 9.04533 167.483 9.008C167.203 8.97067 166.932 8.952 166.671 8.952C166.092 8.952 165.542 9.07333 165.019 9.316C164.496 9.55867 164.03 9.904 163.619 10.352C163.208 10.7813 162.882 11.304 162.639 11.92C162.415 12.536 162.303 13.2267 162.303 13.992V22H159.839V6.992H161.855L162.135 9.736H162.247C162.564 9.176 162.947 8.672 163.395 8.224C163.843 7.75733 164.356 7.39333 164.935 7.132C165.514 6.852 166.148 6.712 166.839 6.712ZM176.655 6.712C177.943 6.712 179.044 6.992 179.959 7.552C180.892 8.112 181.601 8.90533 182.087 9.932C182.591 10.94 182.843 12.1253 182.843 13.488V14.972H172.567C172.604 16.6707 173.033 17.968 173.855 18.864C174.695 19.7413 175.861 20.18 177.355 20.18C178.307 20.18 179.147 20.096 179.875 19.928C180.621 19.7413 181.387 19.48 182.171 19.144V21.3C181.405 21.636 180.649 21.8787 179.903 22.028C179.156 22.196 178.269 22.28 177.243 22.28C175.824 22.28 174.564 21.9907 173.463 21.412C172.38 20.8333 171.531 19.9747 170.915 18.836C170.317 17.6787 170.019 16.2693 170.019 14.608C170.019 12.9653 170.289 11.556 170.831 10.38C171.391 9.204 172.165 8.29867 173.155 7.664C174.163 7.02933 175.329 6.712 176.655 6.712ZM176.627 8.728C175.451 8.728 174.517 9.11067 173.827 9.876C173.155 10.6227 172.753 11.668 172.623 13.012H180.267C180.267 12.1533 180.136 11.4067 179.875 10.772C179.613 10.1373 179.212 9.64267 178.671 9.288C178.148 8.91467 177.467 8.728 176.627 8.728Z"/>
</mask>
<path d="M15.0488 22H12.0808L4.9968 12.452L2.9528 14.244V22H0.432797V2.008H2.9528V11.864C3.5128 11.2293 4.08213 10.5947 4.6608 9.96C5.23946 9.32533 5.81813 8.69067 6.3968 8.056L11.8008 2.008H14.7408L6.8168 10.716L15.0488 22ZM19.8967 6.992V22H17.4327V6.992H19.8967ZM18.6927 1.364C19.0661 1.364 19.3927 1.49467 19.6727 1.756C19.9714 1.99867 20.1207 2.39067 20.1207 2.932C20.1207 3.45467 19.9714 3.84667 19.6727 4.108C19.3927 4.36933 19.0661 4.5 18.6927 4.5C18.2821 4.5 17.9367 4.36933 17.6567 4.108C17.3767 3.84667 17.2367 3.45467 17.2367 2.932C17.2367 2.39067 17.3767 1.99867 17.6567 1.756C17.9367 1.49467 18.2821 1.364 18.6927 1.364ZM27.1155 5.9C27.1155 6.53467 27.0968 7.132 27.0595 7.692C27.0408 8.23333 27.0128 8.66267 26.9755 8.98H27.1155C27.5448 8.34533 28.1328 7.81333 28.8795 7.384C29.6262 6.95467 30.5875 6.74 31.7635 6.74C33.6302 6.74 35.1235 7.39333 36.2435 8.7C37.3822 9.988 37.9515 11.92 37.9515 14.496C37.9515 16.2133 37.6902 17.6507 37.1675 18.808C36.6635 19.9653 35.9448 20.8333 35.0115 21.412C34.0782 21.9907 32.9955 22.28 31.7635 22.28C30.5875 22.28 29.6262 22.0653 28.8795 21.636C28.1328 21.2067 27.5448 20.6933 27.1155 20.096H26.9195L26.4155 22H24.6515V0.719999H27.1155V5.9ZM31.3435 8.784C30.2795 8.784 29.4395 8.98933 28.8235 9.4C28.2075 9.792 27.7688 10.408 27.5075 11.248C27.2462 12.0693 27.1155 13.124 27.1155 14.412V14.524C27.1155 16.372 27.4142 17.7907 28.0115 18.78C28.6275 19.7507 29.7568 20.236 31.3995 20.236C32.7435 20.236 33.7422 19.7413 34.3955 18.752C35.0675 17.7627 35.4035 16.3347 35.4035 14.468C35.4035 12.5827 35.0675 11.164 34.3955 10.212C33.7422 9.26 32.7248 8.784 31.3435 8.784ZM54.926 14.468C54.926 15.7187 54.758 16.8293 54.422 17.8C54.1047 18.752 53.638 19.564 53.022 20.236C52.4247 20.908 51.6874 21.4213 50.81 21.776C49.9514 22.112 48.99 22.28 47.926 22.28C46.9367 22.28 46.022 22.112 45.182 21.776C44.342 21.4213 43.614 20.908 42.998 20.236C42.382 19.564 41.8967 18.752 41.542 17.8C41.206 16.8293 41.038 15.7187 41.038 14.468C41.038 12.8067 41.318 11.4067 41.878 10.268C42.438 9.11067 43.2407 8.23333 44.286 7.636C45.3314 7.02 46.5727 6.712 48.01 6.712C49.3727 6.712 50.5674 7.02 51.594 7.636C52.6394 8.23333 53.4514 9.11067 54.03 10.268C54.6274 11.4067 54.926 12.8067 54.926 14.468ZM43.586 14.468C43.586 15.644 43.7354 16.6707 44.034 17.548C44.3514 18.4067 44.8367 19.0693 45.49 19.536C46.1434 20.0027 46.974 20.236 47.982 20.236C48.99 20.236 49.8207 20.0027 50.474 19.536C51.1274 19.0693 51.6034 18.4067 51.902 17.548C52.2194 16.6707 52.378 15.644 52.378 14.468C52.378 13.2733 52.2194 12.256 51.902 11.416C51.5847 10.576 51.0994 9.932 50.446 9.484C49.8114 9.01733 48.9807 8.784 47.954 8.784C46.4234 8.784 45.3127 9.288 44.622 10.296C43.9314 11.304 43.586 12.6947 43.586 14.468ZM67.3473 22H64.8273V2.008H75.9993V4.22H67.3473V11.304H75.4673V13.516H67.3473V22ZM91.5549 6.992V22H89.5389L89.1749 20.012H89.0629C88.7455 20.5347 88.3349 20.964 87.8309 21.3C87.3269 21.636 86.7762 21.8787 86.1789 22.028C85.5815 22.196 84.9562 22.28 84.3029 22.28C83.1082 22.28 82.1002 22.0933 81.2789 21.72C80.4762 21.328 79.8695 20.7307 79.4589 19.928C79.0482 19.1253 78.8429 18.0893 78.8429 16.82V6.992H81.3349V16.652C81.3349 17.8467 81.6055 18.7427 82.1469 19.34C82.6882 19.9373 83.5282 20.236 84.6669 20.236C85.7869 20.236 86.6642 20.0307 87.2989 19.62C87.9522 19.1907 88.4095 18.5747 88.6709 17.772C88.9509 16.9507 89.0909 15.9613 89.0909 14.804V6.992H91.5549ZM103.319 6.712C103.599 6.712 103.898 6.73067 104.215 6.768C104.551 6.78667 104.841 6.824 105.083 6.88L104.775 9.148C104.533 9.092 104.262 9.04533 103.963 9.008C103.683 8.97067 103.413 8.952 103.151 8.952C102.573 8.952 102.022 9.07333 101.499 9.316C100.977 9.55867 100.51 9.904 100.099 10.352C99.6888 10.7813 99.3621 11.304 99.1195 11.92C98.8955 12.536 98.7835 13.2267 98.7835 13.992V22H96.3195V6.992H98.3355L98.6155 9.736H98.7275C99.0448 9.176 99.4275 8.672 99.8755 8.224C100.323 7.75733 100.837 7.39333 101.415 7.132C101.994 6.852 102.629 6.712 103.319 6.712ZM115.11 6.712C116.902 6.712 118.255 7.15067 119.17 8.028C120.085 8.88667 120.542 10.2867 120.542 12.228V22H118.106V12.396C118.106 11.1827 117.835 10.2773 117.294 9.68C116.753 9.08267 115.903 8.784 114.746 8.784C113.085 8.784 111.937 9.25067 111.302 10.184C110.667 11.1173 110.35 12.4613 110.35 14.216V22H107.886V6.992H109.874L110.238 9.036H110.378C110.714 8.51333 111.125 8.084 111.61 7.748C112.114 7.39333 112.665 7.132 113.262 6.964C113.859 6.796 114.475 6.712 115.11 6.712ZM127.658 6.992V22H125.194V6.992H127.658ZM126.454 1.364C126.828 1.364 127.154 1.49467 127.434 1.756C127.733 1.99867 127.882 2.39067 127.882 2.932C127.882 3.45467 127.733 3.84667 127.434 4.108C127.154 4.36933 126.828 4.5 126.454 4.5C126.044 4.5 125.698 4.36933 125.418 4.108C125.138 3.84667 124.998 3.45467 124.998 2.932C124.998 2.39067 125.138 1.99867 125.418 1.756C125.698 1.49467 126.044 1.364 126.454 1.364ZM137.425 20.264C137.799 20.264 138.181 20.236 138.573 20.18C138.965 20.1053 139.283 20.0307 139.525 19.956V21.832C139.264 21.9627 138.891 22.0653 138.405 22.14C137.92 22.2333 137.453 22.28 137.005 22.28C136.221 22.28 135.493 22.1493 134.821 21.888C134.168 21.608 133.636 21.132 133.225 20.46C132.815 19.788 132.609 18.8453 132.609 17.632V8.896H130.481V7.72L132.637 6.74L133.617 3.548H135.073V6.992H139.413V8.896H135.073V17.576C135.073 18.4907 135.288 19.172 135.717 19.62C136.165 20.0493 136.735 20.264 137.425 20.264ZM155.074 6.992V22H153.058L152.694 20.012H152.582C152.265 20.5347 151.854 20.964 151.35 21.3C150.846 21.636 150.296 21.8787 149.698 22.028C149.101 22.196 148.476 22.28 147.822 22.28C146.628 22.28 145.62 22.0933 144.798 21.72C143.996 21.328 143.389 20.7307 142.978 19.928C142.568 19.1253 142.362 18.0893 142.362 16.82V6.992H144.854V16.652C144.854 17.8467 145.125 18.7427 145.666 19.34C146.208 19.9373 147.048 20.236 148.186 20.236C149.306 20.236 150.184 20.0307 150.818 19.62C151.472 19.1907 151.929 18.5747 152.19 17.772C152.47 16.9507 152.61 15.9613 152.61 14.804V6.992H155.074ZM166.839 6.712C167.119 6.712 167.418 6.73067 167.735 6.768C168.071 6.78667 168.36 6.824 168.603 6.88L168.295 9.148C168.052 9.092 167.782 9.04533 167.483 9.008C167.203 8.97067 166.932 8.952 166.671 8.952C166.092 8.952 165.542 9.07333 165.019 9.316C164.496 9.55867 164.03 9.904 163.619 10.352C163.208 10.7813 162.882 11.304 162.639 11.92C162.415 12.536 162.303 13.2267 162.303 13.992V22H159.839V6.992H161.855L162.135 9.736H162.247C162.564 9.176 162.947 8.672 163.395 8.224C163.843 7.75733 164.356 7.39333 164.935 7.132C165.514 6.852 166.148 6.712 166.839 6.712ZM176.655 6.712C177.943 6.712 179.044 6.992 179.959 7.552C180.892 8.112 181.601 8.90533 182.087 9.932C182.591 10.94 182.843 12.1253 182.843 13.488V14.972H172.567C172.604 16.6707 173.033 17.968 173.855 18.864C174.695 19.7413 175.861 20.18 177.355 20.18C178.307 20.18 179.147 20.096 179.875 19.928C180.621 19.7413 181.387 19.48 182.171 19.144V21.3C181.405 21.636 180.649 21.8787 179.903 22.028C179.156 22.196 178.269 22.28 177.243 22.28C175.824 22.28 174.564 21.9907 173.463 21.412C172.38 20.8333 171.531 19.9747 170.915 18.836C170.317 17.6787 170.019 16.2693 170.019 14.608C170.019 12.9653 170.289 11.556 170.831 10.38C171.391 9.204 172.165 8.29867 173.155 7.664C174.163 7.02933 175.329 6.712 176.655 6.712ZM176.627 8.728C175.451 8.728 174.517 9.11067 173.827 9.876C173.155 10.6227 172.753 11.668 172.623 13.012H180.267C180.267 12.1533 180.136 11.4067 179.875 10.772C179.613 10.1373 179.212 9.64267 178.671 9.288C178.148 8.91467 177.467 8.728 176.627 8.728Z" fill="black"/>
<path d="M15.0488 22V23H17.0162L15.8567 21.4106L15.0488 22ZM12.0808 22L11.2777 22.5958L11.5776 23H12.0808V22ZM4.9968 12.452L5.7999 11.8562L5.15341 10.9848L4.33756 11.7001L4.9968 12.452ZM2.9528 14.244L2.29356 13.4921L1.9528 13.7908V14.244H2.9528ZM2.9528 22V23H3.9528V22H2.9528ZM0.432797 22H-0.567203V23H0.432797V22ZM0.432797 2.008V1.008H-0.567203V2.008H0.432797ZM2.9528 2.008H3.9528V1.008H2.9528V2.008ZM2.9528 11.864H1.9528V14.5088L3.70263 12.5256L2.9528 11.864ZM4.6608 9.96L5.39975 10.6338L5.39975 10.6338L4.6608 9.96ZM6.3968 8.056L7.13579 8.72979L7.14249 8.72229L6.3968 8.056ZM11.8008 2.008V1.008H11.3533L11.0551 1.34171L11.8008 2.008ZM14.7408 2.008L15.4804 2.68103L17.0028 1.008H14.7408V2.008ZM6.8168 10.716L6.07718 10.043L5.52814 10.6463L6.00893 11.3054L6.8168 10.716ZM15.0488 21H12.0808V23H15.0488V21ZM12.8839 21.4042L5.7999 11.8562L4.1937 13.0478L11.2777 22.5958L12.8839 21.4042ZM4.33756 11.7001L2.29356 13.4921L3.61203 14.9959L5.65603 13.2039L4.33756 11.7001ZM1.9528 14.244V22H3.9528V14.244H1.9528ZM2.9528 21H0.432797V23H2.9528V21ZM1.4328 22V2.008H-0.567203V22H1.4328ZM0.432797 3.008H2.9528V1.008H0.432797V3.008ZM1.9528 2.008V11.864H3.9528V2.008H1.9528ZM3.70263 12.5256C4.25899 11.8951 4.82469 11.2645 5.39975 10.6338L3.92184 9.28625C3.33957 9.92487 2.76661 10.5636 2.20296 11.2024L3.70263 12.5256ZM5.39975 10.6338C5.97842 9.99909 6.55709 9.36442 7.13575 8.72975L5.65784 7.38225C5.07917 8.01691 4.50051 8.65158 3.92184 9.28625L5.39975 10.6338ZM7.14249 8.72229L12.5465 2.67429L11.0551 1.34171L5.6511 7.38971L7.14249 8.72229ZM11.8008 3.008H14.7408V1.008H11.8008V3.008ZM14.0012 1.33497L6.07718 10.043L7.55641 11.389L15.4804 2.68103L14.0012 1.33497ZM6.00893 11.3054L14.2409 22.5894L15.8567 21.4106L7.62467 10.1266L6.00893 11.3054ZM19.8967 6.992H20.8967V5.992H19.8967V6.992ZM19.8967 22V23H20.8967V22H19.8967ZM17.4327 22H16.4327V23H17.4327V22ZM17.4327 6.992V5.992H16.4327V6.992H17.4327ZM19.6727 1.756L18.9904 2.48705L19.0155 2.51047L19.0421 2.53211L19.6727 1.756ZM19.6727 4.108L19.0142 3.35542L19.0021 3.36599L18.9904 3.37694L19.6727 4.108ZM17.6567 4.108L18.3391 3.37694L18.3391 3.37694L17.6567 4.108ZM17.6567 1.756L18.3117 2.51169L18.3256 2.49962L18.3391 2.48705L17.6567 1.756ZM18.8967 6.992V22H20.8967V6.992H18.8967ZM19.8967 21H17.4327V23H19.8967V21ZM18.4327 22V6.992H16.4327V22H18.4327ZM17.4327 7.992H19.8967V5.992H17.4327V7.992ZM18.6927 2.364C18.8056 2.364 18.8903 2.39358 18.9904 2.48705L20.3551 1.02494C19.8952 0.595746 19.3265 0.363999 18.6927 0.363999V2.364ZM19.0421 2.53211C19.0429 2.53271 19.0564 2.54107 19.0742 2.58799C19.0951 2.64262 19.1207 2.74936 19.1207 2.932H21.1207C21.1207 2.21791 20.9198 1.4808 20.3033 0.979885L19.0421 2.53211ZM19.1207 2.932C19.1207 3.26323 19.0323 3.33964 19.0142 3.35542L20.3312 4.86058C20.9105 4.35369 21.1207 3.6461 21.1207 2.932H19.1207ZM18.9904 3.37694C18.8903 3.47041 18.8056 3.5 18.6927 3.5V5.5C19.3265 5.5 19.8952 5.26825 20.3551 4.83905L18.9904 3.37694ZM18.6927 3.5C18.5153 3.5 18.4197 3.45226 18.3391 3.37694L16.9744 4.83905C17.4537 5.28641 18.0488 5.5 18.6927 5.5V3.5ZM18.3391 3.37694C18.3273 3.36595 18.2367 3.28217 18.2367 2.932H16.2367C16.2367 3.62716 16.4262 4.32738 16.9744 4.83905L18.3391 3.37694ZM18.2367 2.932C18.2367 2.74335 18.2617 2.62945 18.2835 2.56834C18.2939 2.53922 18.3029 2.52401 18.3069 2.51787C18.309 2.51468 18.3104 2.51306 18.3109 2.5125C18.3113 2.51196 18.3116 2.51178 18.3117 2.51169L17.0018 1.00031C16.4171 1.50708 16.2367 2.23725 16.2367 2.932H18.2367ZM18.3391 2.48705C18.4197 2.41174 18.5153 2.364 18.6927 2.364V0.363999C18.0488 0.363999 17.4537 0.577587 16.9744 1.02494L18.3391 2.48705ZM27.0595 7.692L26.0617 7.62548L26.0606 7.6415L26.0601 7.65754L27.0595 7.692ZM26.9755 8.98L25.9823 8.86316L25.8509 9.98H26.9755V8.98ZM27.1155 8.98V9.98H27.6463L27.9438 9.54031L27.1155 8.98ZM36.2435 8.7L35.4842 9.35079L35.4892 9.3566L35.4943 9.36234L36.2435 8.7ZM37.1675 18.808L36.256 18.3964L36.2506 18.4087L37.1675 18.808ZM35.0115 21.412L34.4845 20.5621L34.4845 20.5621L35.0115 21.412ZM28.8795 21.636L28.381 22.5029L28.8795 21.636ZM27.1155 20.096L27.9275 19.5124L27.6282 19.096H27.1155V20.096ZM26.9195 20.096V19.096H26.1497L25.9528 19.8401L26.9195 20.096ZM26.4155 22V23H27.1852L27.3822 22.2559L26.4155 22ZM24.6515 22H23.6515V23H24.6515V22ZM24.6515 0.719999V-0.280001H23.6515V0.719999H24.6515ZM27.1155 0.719999H28.1155V-0.280001H27.1155V0.719999ZM28.8235 9.4L29.3604 10.2437L29.3693 10.238L29.3782 10.232L28.8235 9.4ZM27.5075 11.248L28.4604 11.5512L28.4623 11.5451L27.5075 11.248ZM28.0115 18.78L27.1554 19.2969L27.1612 19.3064L27.1672 19.3158L28.0115 18.78ZM34.3955 18.752L33.5682 18.1901L33.561 18.2009L34.3955 18.752ZM34.3955 10.212L33.5709 10.7779L33.5785 10.7887L34.3955 10.212ZM26.1155 5.9C26.1155 6.51529 26.0974 7.09026 26.0617 7.62548L28.0573 7.75852C28.0963 7.17374 28.1155 6.55405 28.1155 5.9H26.1155ZM26.0601 7.65754C26.0418 8.18739 26.015 8.5855 25.9823 8.86316L27.9686 9.09684C28.0106 8.73984 28.0398 8.27927 28.0589 7.72646L26.0601 7.65754ZM26.9755 9.98H27.1155V7.98H26.9755V9.98ZM27.9438 9.54031C28.2779 9.04644 28.7466 8.61392 29.378 8.25091L28.381 6.51709C27.519 7.01275 26.8118 7.64423 26.2872 8.41969L27.9438 9.54031ZM29.378 8.25091C29.9275 7.93493 30.7012 7.74 31.7635 7.74V5.74C30.4738 5.74 29.3248 5.9744 28.381 6.51709L29.378 8.25091ZM31.7635 7.74C33.3662 7.74 34.5717 8.28616 35.4842 9.35079L37.0027 8.04921C35.6753 6.50051 33.8941 5.74 31.7635 5.74V7.74ZM35.4943 9.36234C36.4073 10.3951 36.9515 12.0459 36.9515 14.496H38.9515C38.9515 11.7941 38.357 9.58089 36.9927 8.03766L35.4943 9.36234ZM36.9515 14.496C36.9515 16.1187 36.7036 17.4055 36.2561 18.3964L38.0789 19.2196C38.6767 17.8958 38.9515 16.308 38.9515 14.496H36.9515ZM36.2506 18.4087C35.8153 19.4085 35.2203 20.1059 34.4845 20.5621L35.5384 22.2619C36.6694 21.5607 37.5117 20.5222 38.0843 19.2073L36.2506 18.4087ZM34.4845 20.5621C33.7282 21.031 32.8326 21.28 31.7635 21.28V23.28C33.1584 23.28 34.4281 22.9503 35.5384 22.2619L34.4845 20.5621ZM31.7635 21.28C30.7012 21.28 29.9275 21.0851 29.378 20.7691L28.381 22.5029C29.3248 23.0456 30.4738 23.28 31.7635 23.28V21.28ZM29.378 20.7691C28.7339 20.3988 28.2607 19.9759 27.9275 19.5124L26.3035 20.6796C26.829 21.4107 27.5318 22.0146 28.381 22.5029L29.378 20.7691ZM27.1155 19.096H26.9195V21.096H27.1155V19.096ZM25.9528 19.8401L25.4488 21.7441L27.3822 22.2559L27.8862 20.3519L25.9528 19.8401ZM26.4155 21H24.6515V23H26.4155V21ZM25.6515 22V0.719999H23.6515V22H25.6515ZM24.6515 1.72H27.1155V-0.280001H24.6515V1.72ZM26.1155 0.719999V5.9H28.1155V0.719999H26.1155ZM31.3435 7.784C30.1644 7.784 29.1063 8.00962 28.2688 8.56795L29.3782 10.232C29.7727 9.96905 30.3946 9.784 31.3435 9.784V7.784ZM28.2866 8.55634C27.4321 9.10009 26.8692 9.9333 26.5526 10.9509L28.4623 11.5451C28.6684 10.8827 28.9828 10.4839 29.3604 10.2437L28.2866 8.55634ZM26.5546 10.9448C26.2507 11.8998 26.1155 13.0667 26.1155 14.412H28.1155C28.1155 13.1813 28.2416 12.2389 28.4604 11.5512L26.5546 10.9448ZM26.1155 14.412V14.524H28.1155V14.412H26.1155ZM26.1155 14.524C26.1155 16.4553 26.4234 18.0844 27.1554 19.2969L28.8675 18.2631C28.4049 17.4969 28.1155 16.2887 28.1155 14.524H26.1155ZM27.1672 19.3158C28.0384 20.6887 29.5744 21.236 31.3995 21.236V19.236C29.9392 19.236 29.2165 18.8126 28.8558 18.2442L27.1672 19.3158ZM31.3995 21.236C33.0268 21.236 34.3643 20.6139 35.2299 19.3031L33.561 18.2009C33.12 18.8688 32.4602 19.236 31.3995 19.236V21.236ZM35.2227 19.3139C36.0542 18.0897 36.4035 16.4311 36.4035 14.468H34.4035C34.4035 16.2383 34.0808 17.4356 33.5683 18.1901L35.2227 19.3139ZM36.4035 14.468C36.4035 12.493 36.0567 10.8313 35.2125 9.63532L33.5785 10.7887C34.0783 11.4967 34.4035 12.6724 34.4035 14.468H36.4035ZM35.22 9.64616C34.3419 8.36659 32.9804 7.784 31.3435 7.784V9.784C32.4692 9.784 33.1424 10.1534 33.571 10.7778L35.22 9.64616ZM54.422 17.8L53.477 17.4729L53.4734 17.4838L54.422 17.8ZM53.022 20.236L52.2849 19.5603L52.2797 19.5659L52.2746 19.5716L53.022 20.236ZM50.81 21.776L51.1745 22.7073L51.1848 22.7031L50.81 21.776ZM45.182 21.776L44.7931 22.6972L44.8018 22.7009L44.8107 22.7045L45.182 21.776ZM42.998 20.236L42.2609 20.9117L42.2609 20.9117L42.998 20.236ZM41.542 17.8L40.5971 18.1271L40.6009 18.1382L40.605 18.1491L41.542 17.8ZM41.878 10.268L42.7754 10.7093L42.7782 10.7036L41.878 10.268ZM44.286 7.636L44.7822 8.50432L44.7937 8.49754L44.286 7.636ZM51.594 7.636L51.0796 8.49349L51.0887 8.49897L51.0979 8.50424L51.594 7.636ZM54.03 10.268L53.1356 10.7152L53.14 10.7239L53.1445 10.7325L54.03 10.268ZM44.034 17.548L43.0874 17.8703L43.0916 17.8825L43.0961 17.8946L44.034 17.548ZM45.49 19.536L46.0713 18.7223L46.0713 18.7223L45.49 19.536ZM50.474 19.536L49.8928 18.7223L49.8928 18.7223L50.474 19.536ZM51.902 17.548L50.9616 17.2078L50.9576 17.2195L51.902 17.548ZM51.902 11.416L52.8375 11.0626L52.8375 11.0626L51.902 11.416ZM50.446 9.484L49.8537 10.2897L49.8669 10.2994L49.8805 10.3087L50.446 9.484ZM44.622 10.296L45.447 10.8612L45.447 10.8612L44.622 10.296ZM53.926 14.468C53.926 15.6307 53.7697 16.6275 53.4771 17.4729L55.367 18.1271C55.7464 17.0312 55.926 15.8066 55.926 14.468H53.926ZM53.4734 17.4838C53.196 18.316 52.7967 19.0019 52.2849 19.5603L53.7592 20.9117C54.4794 20.1261 55.0135 19.188 55.3707 18.1162L53.4734 17.4838ZM52.2746 19.5716C51.785 20.1225 51.1775 20.5488 50.4353 20.8489L51.1848 22.7031C52.1973 22.2938 53.0644 21.6935 53.7695 20.9004L52.2746 19.5716ZM50.4456 20.8448C49.7195 21.1289 48.8843 21.28 47.926 21.28V23.28C49.0958 23.28 50.1832 23.0951 51.1744 22.7072L50.4456 20.8448ZM47.926 21.28C47.052 21.28 46.2647 21.132 45.5534 20.8475L44.8107 22.7045C45.7794 23.092 46.8214 23.28 47.926 23.28V21.28ZM45.571 20.8548C44.8633 20.556 44.2541 20.1264 43.7352 19.5603L42.2609 20.9117C42.974 21.6896 43.8208 22.2867 44.7931 22.6972L45.571 20.8548ZM43.7352 19.5603C43.2157 18.9935 42.794 18.296 42.4791 17.4509L40.605 18.1491C40.9995 19.208 41.5484 20.1345 42.2609 20.9117L43.7352 19.5603ZM42.487 17.4729C42.1944 16.6275 42.038 15.6307 42.038 14.468H40.038C40.038 15.8066 40.2177 17.0312 40.5971 18.1271L42.487 17.4729ZM42.038 14.468C42.038 12.9142 42.3005 11.675 42.7754 10.7093L40.9807 9.82668C40.3356 11.1383 40.038 12.6991 40.038 14.468H42.038ZM42.7782 10.7036C43.2566 9.71493 43.9242 8.9945 44.7822 8.50424L43.7899 6.76776C42.5572 7.47216 41.6195 8.5064 40.9779 9.83244L42.7782 10.7036ZM44.7937 8.49754C45.659 7.98767 46.7181 7.712 48.01 7.712V5.712C46.4273 5.712 45.0038 6.05233 43.7784 6.77446L44.7937 8.49754ZM48.01 7.712C49.217 7.712 50.2288 7.98307 51.0796 8.49349L52.1085 6.77851C50.9059 6.05693 49.5284 5.712 48.01 5.712V7.712ZM51.0979 8.50424C51.9589 8.99622 52.6383 9.72063 53.1356 10.7152L54.9245 9.82079C54.2644 8.5007 53.3199 7.47044 52.0902 6.76776L51.0979 8.50424ZM53.1445 10.7325C53.6479 11.6922 53.926 12.9227 53.926 14.468H55.926C55.926 12.6907 55.6068 11.1211 54.9156 9.80345L53.1445 10.7325ZM42.586 14.468C42.586 15.7255 42.7454 16.8655 43.0874 17.8703L44.9807 17.2257C44.7254 16.4758 44.586 15.5625 44.586 14.468H42.586ZM43.0961 17.8946C43.4728 18.914 44.0704 19.7508 44.9088 20.3497L46.0713 18.7223C45.6031 18.3878 45.23 17.8993 44.972 17.2013L43.0961 17.8946ZM44.9088 20.3497C45.7707 20.9654 46.8193 21.236 47.982 21.236V19.236C47.1288 19.236 46.516 19.0399 46.0713 18.7223L44.9088 20.3497ZM47.982 21.236C49.1448 21.236 50.1934 20.9654 51.0553 20.3497L49.8928 18.7223C49.4481 19.0399 48.8353 19.236 47.982 19.236V21.236ZM51.0553 20.3497C51.8988 19.7473 52.4893 18.9037 52.8465 17.8765L50.9576 17.2195C50.7175 17.9096 50.356 18.3914 49.8928 18.7223L51.0553 20.3497ZM52.8424 17.8881C53.208 16.8775 53.378 15.7311 53.378 14.468H51.378C51.378 15.5569 51.2308 16.4638 50.9617 17.2079L52.8424 17.8881ZM53.378 14.468C53.378 13.1902 53.209 12.046 52.8375 11.0626L50.9666 11.7694C51.2297 12.466 51.378 13.3565 51.378 14.468H53.378ZM52.8375 11.0626C52.458 10.0579 51.8554 9.23792 51.0116 8.65927L49.8805 10.3087C50.3433 10.6261 50.7115 11.0941 50.9666 11.7694L52.8375 11.0626ZM51.0384 8.67835C50.1865 8.05191 49.1293 7.784 47.954 7.784V9.784C48.8321 9.784 49.4363 9.98275 49.8537 10.2897L51.0384 8.67835ZM47.954 7.784C46.1875 7.784 44.7217 8.3814 43.7971 9.73077L45.447 10.8612C45.9037 10.1946 46.6593 9.784 47.954 9.784V7.784ZM43.7971 9.73077C42.9516 10.9647 42.586 12.5797 42.586 14.468H44.586C44.586 12.8097 44.9111 11.6433 45.447 10.8612L43.7971 9.73077ZM67.3473 22V23H68.3473V22H67.3473ZM64.8273 22H63.8273V23H64.8273V22ZM64.8273 2.008V1.008H63.8273V2.008H64.8273ZM75.9993 2.008H76.9993V1.008H75.9993V2.008ZM75.9993 4.22V5.22H76.9993V4.22H75.9993ZM67.3473 4.22V3.22H66.3473V4.22H67.3473ZM67.3473 11.304H66.3473V12.304H67.3473V11.304ZM75.4673 11.304H76.4673V10.304H75.4673V11.304ZM75.4673 13.516V14.516H76.4673V13.516H75.4673ZM67.3473 13.516V12.516H66.3473V13.516H67.3473ZM67.3473 21H64.8273V23H67.3473V21ZM65.8273 22V2.008H63.8273V22H65.8273ZM64.8273 3.008H75.9993V1.008H64.8273V3.008ZM74.9993 2.008V4.22H76.9993V2.008H74.9993ZM75.9993 3.22H67.3473V5.22H75.9993V3.22ZM66.3473 4.22V11.304H68.3473V4.22H66.3473ZM67.3473 12.304H75.4673V10.304H67.3473V12.304ZM74.4673 11.304V13.516H76.4673V11.304H74.4673ZM75.4673 12.516H67.3473V14.516H75.4673V12.516ZM66.3473 13.516V22H68.3473V13.516H66.3473ZM91.5549 6.992H92.5549V5.992H91.5549V6.992ZM91.5549 22V23H92.5549V22H91.5549ZM89.5389 22L88.5552 22.1801L88.7053 23H89.5389V22ZM89.1749 20.012L90.1585 19.8319L90.0084 19.012H89.1749V20.012ZM89.0629 20.012V19.012H88.5001L88.2081 19.493L89.0629 20.012ZM87.8309 21.3L87.2762 20.4679L87.2762 20.4679L87.8309 21.3ZM86.1789 22.028L85.9363 21.0579L85.9222 21.0614L85.9081 21.0653L86.1789 22.028ZM81.2789 21.72L80.84 22.6186L80.8525 22.6246L80.8651 22.6304L81.2789 21.72ZM79.4589 19.928L78.5686 20.3835L78.5686 20.3835L79.4589 19.928ZM78.8429 6.992V5.992H77.8429V6.992H78.8429ZM81.3349 6.992H82.3349V5.992H81.3349V6.992ZM82.1469 19.34L82.8878 18.6685L82.8878 18.6685L82.1469 19.34ZM87.2989 19.62L87.8421 20.4596L87.848 20.4557L87.2989 19.62ZM88.6709 17.772L87.7243 17.4493L87.72 17.4624L88.6709 17.772ZM89.0909 6.992V5.992H88.0909V6.992H89.0909ZM90.5549 6.992V22H92.5549V6.992H90.5549ZM91.5549 21H89.5389V23H91.5549V21ZM90.5225 21.8199L90.1585 19.8319L88.1912 20.1921L88.5552 22.1801L90.5225 21.8199ZM89.1749 19.012H89.0629V21.012H89.1749V19.012ZM88.2081 19.493C87.9659 19.8919 87.6572 20.2139 87.2762 20.4679L88.3856 22.1321C89.0125 21.7141 89.5251 21.1775 89.9176 20.531L88.2081 19.493ZM87.2762 20.4679C86.8691 20.7393 86.4243 20.9359 85.9363 21.0579L86.4214 22.9981C87.1281 22.8215 87.7846 22.5327 88.3856 22.1321L87.2762 20.4679ZM85.9081 21.0653C85.4034 21.2073 84.8695 21.28 84.3029 21.28V23.28C85.0429 23.28 85.7596 23.1847 86.4496 22.9907L85.9081 21.0653ZM84.3029 21.28C83.2069 21.28 82.3491 21.108 81.6927 20.8096L80.8651 22.6304C81.8512 23.0786 83.0095 23.28 84.3029 23.28V21.28ZM81.7177 20.8214C81.1114 20.5254 80.6622 20.0845 80.3491 19.4725L78.5686 20.3835C79.0768 21.3768 79.841 22.1306 80.84 22.6186L81.7177 20.8214ZM80.3491 19.4725C80.0339 18.8564 79.8429 17.9916 79.8429 16.82H77.8429C77.8429 18.187 78.0625 19.3942 78.5686 20.3835L80.3491 19.4725ZM79.8429 16.82V6.992H77.8429V16.82H79.8429ZM78.8429 7.992H81.3349V5.992H78.8429V7.992ZM80.3349 6.992V16.652H82.3349V6.992H80.3349ZM80.3349 16.652C80.3349 17.9778 80.6331 19.1588 81.4059 20.0115L82.8878 18.6685C82.5779 18.3265 82.3349 17.7155 82.3349 16.652H80.3349ZM81.4059 20.0115C82.2045 20.8927 83.3656 21.236 84.6669 21.236V19.236C83.6908 19.236 83.1719 18.9819 82.8878 18.6685L81.4059 20.0115ZM84.6669 21.236C85.8924 21.236 86.9853 21.014 87.8421 20.4596L86.7556 18.7804C86.3431 19.0474 85.6814 19.236 84.6669 19.236V21.236ZM87.848 20.4557C88.7067 19.8914 89.2961 19.0817 89.6217 18.0816L87.72 17.4624C87.5229 18.0676 87.1977 18.4899 86.7497 18.7843L87.848 20.4557ZM89.6174 18.0947C89.9424 17.1413 90.0909 16.0368 90.0909 14.804H88.0909C88.0909 15.8859 87.9593 16.76 87.7243 17.4493L89.6174 18.0947ZM90.0909 14.804V6.992H88.0909V14.804H90.0909ZM89.0909 7.992H91.5549V5.992H89.0909V7.992ZM104.215 6.768L104.099 7.76115L104.129 7.76475L104.16 7.76646L104.215 6.768ZM105.083 6.88L106.074 7.01457L106.197 6.11071L105.308 5.90561L105.083 6.88ZM104.775 9.148L104.551 10.1224L105.619 10.3689L105.766 9.28257L104.775 9.148ZM103.963 9.008L103.831 9.99926L103.839 10.0003L103.963 9.008ZM101.499 9.316L101.921 10.223L101.921 10.223L101.499 9.316ZM100.099 10.352L100.822 11.0432L100.829 11.0356L100.837 11.0277L100.099 10.352ZM99.1195 11.92L98.189 11.5535L98.1842 11.5658L98.1797 11.5783L99.1195 11.92ZM98.7835 22V23H99.7835V22H98.7835ZM96.3195 22H95.3195V23H96.3195V22ZM96.3195 6.992V5.992H95.3195V6.992H96.3195ZM98.3355 6.992L99.3303 6.89049L99.2386 5.992H98.3355V6.992ZM98.6155 9.736L97.6206 9.83751L97.7123 10.736H98.6155V9.736ZM98.7275 9.736V10.736H99.3102L99.5975 10.229L98.7275 9.736ZM99.8755 8.224L100.583 8.93111L100.59 8.92389L100.597 8.91653L99.8755 8.224ZM101.415 7.132L101.827 8.04337L101.839 8.03792L101.851 8.03216L101.415 7.132ZM103.319 7.712C103.555 7.712 103.815 7.72776 104.099 7.76115L104.332 5.77485C103.981 5.73358 103.643 5.712 103.319 5.712V7.712ZM104.16 7.76646C104.457 7.78298 104.687 7.81481 104.859 7.85439L105.308 5.90561C104.995 5.83319 104.646 5.79035 104.271 5.76954L104.16 7.76646ZM104.093 6.74543L103.785 9.01343L105.766 9.28257L106.074 7.01457L104.093 6.74543ZM105 8.17361C104.718 8.10854 104.413 8.05645 104.087 8.01572L103.839 10.0003C104.111 10.0342 104.347 10.0755 104.551 10.1224L105 8.17361ZM104.096 8.01677C103.775 7.97406 103.46 7.952 103.151 7.952V9.952C103.365 9.952 103.592 9.96727 103.831 9.99923L104.096 8.01677ZM103.151 7.952C102.428 7.952 101.734 8.1048 101.078 8.40899L101.921 10.223C102.311 10.0419 102.718 9.952 103.151 9.952V7.952ZM101.078 8.40899C100.43 8.71017 99.8571 9.1365 99.3623 9.67628L100.837 11.0277C101.163 10.6715 101.524 10.4072 101.921 10.223L101.078 8.40899ZM99.3768 9.66078C98.8668 10.194 98.4738 10.8306 98.189 11.5535L100.05 12.2865C100.25 11.7774 100.511 11.3687 100.822 11.0432L99.3768 9.66078ZM98.1797 11.5783C97.9098 12.3205 97.7835 13.1293 97.7835 13.992H99.7835C99.7835 13.3241 99.8811 12.7515 100.059 12.2617L98.1797 11.5783ZM97.7835 13.992V22H99.7835V13.992H97.7835ZM98.7835 21H96.3195V23H98.7835V21ZM97.3195 22V6.992H95.3195V22H97.3195ZM96.3195 7.992H98.3355V5.992H96.3195V7.992ZM97.3406 7.09351L97.6206 9.83751L99.6103 9.63449L99.3303 6.89049L97.3406 7.09351ZM98.6155 10.736H98.7275V8.736H98.6155V10.736ZM99.5975 10.229C99.8711 9.74613 100.199 9.31439 100.583 8.93111L99.1683 7.51689C98.6556 8.02961 98.2185 8.60587 97.8574 9.24299L99.5975 10.229ZM100.597 8.91653C100.958 8.54013 101.367 8.25119 101.827 8.04337L101.004 6.22063C100.307 6.53548 99.6887 6.97453 99.1541 7.53147L100.597 8.91653ZM101.851 8.03216C102.284 7.82268 102.768 7.712 103.319 7.712V5.712C102.489 5.712 101.704 5.88132 100.98 6.23184L101.851 8.03216ZM119.17 8.028L118.478 8.74972L118.485 8.75707L119.17 8.028ZM120.542 22V23H121.542V22H120.542ZM118.106 22H117.106V23H118.106V22ZM117.294 9.68L118.035 9.00848L118.035 9.00848L117.294 9.68ZM111.302 10.184L112.129 10.7463L112.129 10.7463L111.302 10.184ZM110.35 22V23H111.35V22H110.35ZM107.886 22H106.886V23H107.886V22ZM107.886 6.992V5.992H106.886V6.992H107.886ZM109.874 6.992L110.858 6.81668L110.712 5.992H109.874V6.992ZM110.238 9.036L109.253 9.21132L109.4 10.036H110.238V9.036ZM110.378 9.036V10.036H110.924L111.219 9.57676L110.378 9.036ZM111.61 7.748L112.179 8.57022L112.185 8.56581L111.61 7.748ZM115.11 7.712C116.751 7.712 117.814 8.11351 118.478 8.74968L119.862 7.30632C118.696 6.18783 117.053 5.712 115.11 5.712V7.712ZM118.485 8.75707C119.111 9.3445 119.542 10.4139 119.542 12.228H121.542C121.542 10.1595 121.058 8.42884 119.854 7.29893L118.485 8.75707ZM119.542 12.228V22H121.542V12.228H119.542ZM120.542 21H118.106V23H120.542V21ZM119.106 22V12.396H117.106V22H119.106ZM119.106 12.396C119.106 11.0564 118.81 9.86359 118.035 9.00848L116.553 10.3515C116.861 10.6911 117.106 11.3089 117.106 12.396H119.106ZM118.035 9.00848C117.233 8.12418 116.06 7.784 114.746 7.784V9.784C115.746 9.784 116.272 10.0412 116.553 10.3515L118.035 9.00848ZM114.746 7.784C112.92 7.784 111.373 8.30108 110.475 9.62169L112.129 10.7463C112.5 10.2003 113.25 9.784 114.746 9.784V7.784ZM110.475 9.62169C109.681 10.7894 109.35 12.3639 109.35 14.216H111.35C111.35 12.5588 111.654 11.4452 112.129 10.7463L110.475 9.62169ZM109.35 14.216V22H111.35V14.216H109.35ZM110.35 21H107.886V23H110.35V21ZM108.886 22V6.992H106.886V22H108.886ZM107.886 7.992H109.874V5.992H107.886V7.992ZM108.889 7.16732L109.253 9.21132L111.222 8.86068L110.858 6.81668L108.889 7.16732ZM110.238 10.036H110.378V8.036H110.238V10.036ZM111.219 9.57676C111.488 9.15897 111.808 8.8273 112.179 8.57019L111.041 6.92581C110.441 7.3407 109.94 7.86769 109.537 8.49524L111.219 9.57676ZM112.185 8.56581C112.596 8.27679 113.044 8.06419 113.533 7.92665L112.991 6.00135C112.285 6.19981 111.632 6.50988 111.034 6.93019L112.185 8.56581ZM113.533 7.92665C114.04 7.784 114.565 7.712 115.11 7.712V5.712C114.386 5.712 113.679 5.808 112.991 6.00135L113.533 7.92665ZM127.658 6.992H128.658V5.992H127.658V6.992ZM127.658 22V23H128.658V22H127.658ZM125.194 22H124.194V23H125.194V22ZM125.194 6.992V5.992H124.194V6.992H125.194ZM127.434 1.756L126.752 2.48705L126.777 2.51047L126.804 2.53211L127.434 1.756ZM127.434 4.108L126.776 3.35542L126.764 3.36599L126.752 3.37694L127.434 4.108ZM125.418 4.108L126.101 3.37694L126.101 3.37694L125.418 4.108ZM125.418 1.756L126.073 2.51169L126.087 2.49962L126.101 2.48705L125.418 1.756ZM126.658 6.992V22H128.658V6.992H126.658ZM127.658 21H125.194V23H127.658V21ZM126.194 22V6.992H124.194V22H126.194ZM125.194 7.992H127.658V5.992H125.194V7.992ZM126.454 2.364C126.567 2.364 126.652 2.39358 126.752 2.48705L128.117 1.02494C127.657 0.595746 127.088 0.363999 126.454 0.363999V2.364ZM126.804 2.53211C126.805 2.53271 126.818 2.54107 126.836 2.58799C126.857 2.64262 126.882 2.74936 126.882 2.932H128.882C128.882 2.21791 128.682 1.4808 128.065 0.979885L126.804 2.53211ZM126.882 2.932C126.882 3.26323 126.794 3.33964 126.776 3.35542L128.093 4.86058C128.672 4.35369 128.882 3.6461 128.882 2.932H126.882ZM126.752 3.37694C126.652 3.47041 126.567 3.5 126.454 3.5V5.5C127.088 5.5 127.657 5.26825 128.117 4.83905L126.752 3.37694ZM126.454 3.5C126.277 3.5 126.181 3.45226 126.101 3.37694L124.736 4.83905C125.215 5.28641 125.811 5.5 126.454 5.5V3.5ZM126.101 3.37694C126.089 3.36595 125.998 3.28217 125.998 2.932H123.998C123.998 3.62716 124.188 4.32738 124.736 4.83905L126.101 3.37694ZM125.998 2.932C125.998 2.74335 126.023 2.62945 126.045 2.56834C126.056 2.53922 126.065 2.52401 126.069 2.51787C126.071 2.51468 126.072 2.51306 126.073 2.5125C126.073 2.51196 126.073 2.51178 126.073 2.51169L124.764 1.00031C124.179 1.50708 123.998 2.23725 123.998 2.932H125.998ZM126.101 2.48705C126.181 2.41174 126.277 2.364 126.454 2.364V0.363999C125.811 0.363999 125.215 0.577587 124.736 1.02494L126.101 2.48705ZM138.573 20.18L138.715 21.1699L138.738 21.1667L138.76 21.1623L138.573 20.18ZM139.525 19.956H140.525V18.602L139.231 19.0002L139.525 19.956ZM139.525 21.832L139.972 22.7264L140.525 22.45V21.832H139.525ZM138.405 22.14L138.253 21.1516L138.235 21.1545L138.216 21.158L138.405 22.14ZM134.821 21.888L134.427 22.8071L134.443 22.8138L134.459 22.82L134.821 21.888ZM133.225 20.46L132.372 20.9814L133.225 20.46ZM132.609 8.896H133.609V7.896H132.609V8.896ZM130.481 8.896H129.481V9.896H130.481V8.896ZM130.481 7.72L130.067 6.80963L129.481 7.07609V7.72H130.481ZM132.637 6.74L133.051 7.65037L133.461 7.46401L133.593 7.0335L132.637 6.74ZM133.617 3.548V2.548H132.878L132.661 3.2545L133.617 3.548ZM135.073 3.548H136.073V2.548H135.073V3.548ZM135.073 6.992H134.073V7.992H135.073V6.992ZM139.413 6.992H140.413V5.992H139.413V6.992ZM139.413 8.896V9.896H140.413V8.896H139.413ZM135.073 8.896V7.896H134.073V8.896H135.073ZM135.717 19.62L134.995 20.3119L135.01 20.3273L135.025 20.342L135.717 19.62ZM137.425 21.264C137.849 21.264 138.279 21.2322 138.715 21.1699L138.432 19.1901C138.084 19.2398 137.748 19.264 137.425 19.264V21.264ZM138.76 21.1623C139.171 21.0842 139.528 21.0015 139.819 20.9118L139.231 19.0002C139.038 19.0598 138.76 19.1265 138.386 19.1977L138.76 21.1623ZM138.525 19.956V21.832H140.525V19.956H138.525ZM139.078 20.9376C138.951 21.0008 138.696 21.0836 138.253 21.1516L138.557 23.1284C139.085 23.0471 139.576 22.9245 139.972 22.7264L139.078 20.9376ZM138.216 21.158C137.787 21.2406 137.384 21.28 137.005 21.28V23.28C137.523 23.28 138.053 23.2261 138.594 23.122L138.216 21.158ZM137.005 21.28C136.334 21.28 135.73 21.1686 135.184 20.956L134.459 22.82C135.256 23.1301 136.108 23.28 137.005 23.28V21.28ZM135.215 20.9689C134.773 20.7793 134.393 20.4535 134.078 19.9385L132.372 20.9814C132.879 21.8105 133.563 22.4367 134.427 22.8071L135.215 20.9689ZM134.078 19.9385C133.802 19.4867 133.609 18.7529 133.609 17.632H131.609C131.609 18.9378 131.827 20.0893 132.372 20.9814L134.078 19.9385ZM133.609 17.632V8.896H131.609V17.632H133.609ZM132.609 7.896H130.481V9.896H132.609V7.896ZM131.481 8.896V7.72H129.481V8.896H131.481ZM130.895 8.63037L133.051 7.65037L132.223 5.82963L130.067 6.80963L130.895 8.63037ZM133.593 7.0335L134.573 3.8415L132.661 3.2545L131.681 6.4465L133.593 7.0335ZM133.617 4.548H135.073V2.548H133.617V4.548ZM134.073 3.548V6.992H136.073V3.548H134.073ZM135.073 7.992H139.413V5.992H135.073V7.992ZM138.413 6.992V8.896H140.413V6.992H138.413ZM139.413 7.896H135.073V9.896H139.413V7.896ZM134.073 8.896V17.576H136.073V8.896H134.073ZM134.073 17.576C134.073 18.6277 134.318 19.6057 134.995 20.3119L136.439 18.9281C136.257 18.7383 136.073 18.3537 136.073 17.576H134.073ZM135.025 20.342C135.681 20.9705 136.508 21.264 137.425 21.264V19.264C136.961 19.264 136.649 19.1281 136.409 18.898L135.025 20.342ZM155.074 6.992H156.074V5.992H155.074V6.992ZM155.074 22V23H156.074V22H155.074ZM153.058 22L152.075 22.1801L152.225 23H153.058V22ZM152.694 20.012L153.678 19.8319L153.528 19.012H152.694V20.012ZM152.582 20.012V19.012H152.02L151.728 19.493L152.582 20.012ZM151.35 21.3L150.796 20.4679L150.796 20.4679L151.35 21.3ZM149.698 22.028L149.456 21.0579L149.442 21.0614L149.428 21.0653L149.698 22.028ZM144.798 21.72L144.36 22.6186L144.372 22.6246L144.385 22.6304L144.798 21.72ZM142.978 19.928L142.088 20.3835L142.088 20.3835L142.978 19.928ZM142.362 6.992V5.992H141.362V6.992H142.362ZM144.854 6.992H145.854V5.992H144.854V6.992ZM145.666 19.34L146.407 18.6685L146.407 18.6685L145.666 19.34ZM150.818 19.62L151.362 20.4596L151.368 20.4557L150.818 19.62ZM152.19 17.772L151.244 17.4493L151.24 17.4624L152.19 17.772ZM152.61 6.992V5.992H151.61V6.992H152.61ZM154.074 6.992V22H156.074V6.992H154.074ZM155.074 21H153.058V23H155.074V21ZM154.042 21.8199L153.678 19.8319L151.711 20.1921L152.075 22.1801L154.042 21.8199ZM152.694 19.012H152.582V21.012H152.694V19.012ZM151.728 19.493C151.485 19.8919 151.177 20.2139 150.796 20.4679L151.905 22.1321C152.532 21.7141 153.045 21.1775 153.437 20.531L151.728 19.493ZM150.796 20.4679C150.389 20.7393 149.944 20.9359 149.456 21.0579L149.941 22.9981C150.648 22.8215 151.304 22.5327 151.905 22.1321L150.796 20.4679ZM149.428 21.0653C148.923 21.2073 148.389 21.28 147.822 21.28V23.28C148.562 23.28 149.279 23.1847 149.969 22.9907L149.428 21.0653ZM147.822 21.28C146.726 21.28 145.869 21.108 145.212 20.8096L144.385 22.6304C145.371 23.0786 146.529 23.28 147.822 23.28V21.28ZM145.237 20.8214C144.631 20.5254 144.182 20.0845 143.869 19.4725L142.088 20.3835C142.596 21.3768 143.36 22.1306 144.36 22.6186L145.237 20.8214ZM143.869 19.4725C143.553 18.8564 143.362 17.9916 143.362 16.82H141.362C141.362 18.187 141.582 19.3942 142.088 20.3835L143.869 19.4725ZM143.362 16.82V6.992H141.362V16.82H143.362ZM142.362 7.992H144.854V5.992H142.362V7.992ZM143.854 6.992V16.652H145.854V6.992H143.854ZM143.854 16.652C143.854 17.9778 144.153 19.1588 144.925 20.0115L146.407 18.6685C146.097 18.3265 145.854 17.7155 145.854 16.652H143.854ZM144.925 20.0115C145.724 20.8927 146.885 21.236 148.186 21.236V19.236C147.21 19.236 146.691 18.9819 146.407 18.6685L144.925 20.0115ZM148.186 21.236C149.412 21.236 150.505 21.014 151.362 20.4596L150.275 18.7804C149.863 19.0474 149.201 19.236 148.186 19.236V21.236ZM151.368 20.4557C152.226 19.8914 152.816 19.0817 153.141 18.0816L151.24 17.4624C151.042 18.0676 150.717 18.4899 150.269 18.7843L151.368 20.4557ZM153.137 18.0947C153.462 17.1413 153.61 16.0368 153.61 14.804H151.61C151.61 15.8859 151.479 16.76 151.244 17.4493L153.137 18.0947ZM153.61 14.804V6.992H151.61V14.804H153.61ZM152.61 7.992H155.074V5.992H152.61V7.992ZM167.735 6.768L167.618 7.76115L167.649 7.76475L167.68 7.76646L167.735 6.768ZM168.603 6.88L169.594 7.01457L169.717 6.11071L168.828 5.90561L168.603 6.88ZM168.295 9.148L168.07 10.1224L169.138 10.3689L169.286 9.28257L168.295 9.148ZM167.483 9.008L167.351 9.99926L167.359 10.0003L167.483 9.008ZM165.019 9.316L165.44 10.223L165.44 10.223L165.019 9.316ZM163.619 10.352L164.342 11.0432L164.349 11.0356L164.356 11.0277L163.619 10.352ZM162.639 11.92L161.709 11.5535L161.704 11.5658L161.699 11.5783L162.639 11.92ZM162.303 22V23H163.303V22H162.303ZM159.839 22H158.839V23H159.839V22ZM159.839 6.992V5.992H158.839V6.992H159.839ZM161.855 6.992L162.85 6.89049L162.758 5.992H161.855V6.992ZM162.135 9.736L161.14 9.83751L161.232 10.736H162.135V9.736ZM162.247 9.736V10.736H162.83L163.117 10.229L162.247 9.736ZM163.395 8.224L164.102 8.93111L164.109 8.92389L164.116 8.91653L163.395 8.224ZM164.935 7.132L165.347 8.04337L165.359 8.03792L165.371 8.03216L164.935 7.132ZM166.839 7.712C167.075 7.712 167.334 7.72776 167.618 7.76115L167.852 5.77485C167.501 5.73358 167.163 5.712 166.839 5.712V7.712ZM167.68 7.76646C167.977 7.78298 168.207 7.81481 168.378 7.85439L168.828 5.90561C168.514 5.83319 168.165 5.79035 167.79 5.76954L167.68 7.76646ZM167.612 6.74543L167.304 9.01343L169.286 9.28257L169.594 7.01457L167.612 6.74543ZM168.52 8.17361C168.238 8.10854 167.933 8.05645 167.607 8.01572L167.359 10.0003C167.63 10.0342 167.867 10.0755 168.07 10.1224L168.52 8.17361ZM167.615 8.01677C167.295 7.97406 166.98 7.952 166.671 7.952V9.952C166.885 9.952 167.111 9.96727 167.351 9.99923L167.615 8.01677ZM166.671 7.952C165.947 7.952 165.253 8.1048 164.598 8.40899L165.44 10.223C165.83 10.0419 166.237 9.952 166.671 9.952V7.952ZM164.598 8.40899C163.949 8.71017 163.377 9.1365 162.882 9.67628L164.356 11.0277C164.683 10.6715 165.043 10.4072 165.44 10.223L164.598 8.40899ZM162.896 9.66078C162.386 10.194 161.993 10.8306 161.709 11.5535L163.569 12.2865C163.77 11.7774 164.03 11.3687 164.342 11.0432L162.896 9.66078ZM161.699 11.5783C161.429 12.3205 161.303 13.1293 161.303 13.992H163.303C163.303 13.3241 163.401 12.7515 163.579 12.2617L161.699 11.5783ZM161.303 13.992V22H163.303V13.992H161.303ZM162.303 21H159.839V23H162.303V21ZM160.839 22V6.992H158.839V22H160.839ZM159.839 7.992H161.855V5.992H159.839V7.992ZM160.86 7.09351L161.14 9.83751L163.13 9.63449L162.85 6.89049L160.86 7.09351ZM162.135 10.736H162.247V8.736H162.135V10.736ZM163.117 10.229C163.391 9.74613 163.719 9.31439 164.102 8.93111L162.688 7.51689C162.175 8.02961 161.738 8.60587 161.377 9.24299L163.117 10.229ZM164.116 8.91653C164.478 8.54013 164.886 8.25119 165.347 8.04337L164.523 6.22063C163.826 6.53548 163.208 6.97453 162.674 7.53147L164.116 8.91653ZM165.371 8.03216C165.803 7.82268 166.288 7.712 166.839 7.712V5.712C166.009 5.712 165.224 5.88132 164.499 6.23184L165.371 8.03216ZM179.959 7.552L179.436 8.40488L179.444 8.40949L179.959 7.552ZM182.087 9.932L181.182 10.3594L181.187 10.3693L181.192 10.3792L182.087 9.932ZM182.843 14.972V15.972H183.843V14.972H182.843ZM172.567 14.972V13.972H171.544L171.567 14.994L172.567 14.972ZM173.855 18.864L173.117 19.5397L173.125 19.5477L173.132 19.5556L173.855 18.864ZM179.875 19.928L180.099 20.9024L180.108 20.9003L180.117 20.8981L179.875 19.928ZM182.171 19.144H183.171V17.6275L181.777 18.2249L182.171 19.144ZM182.171 21.3L182.573 22.2156L183.171 21.9531V21.3H182.171ZM179.903 22.028L179.706 21.0474L179.695 21.0498L179.683 21.0524L179.903 22.028ZM173.463 21.412L172.991 22.294L172.997 22.2972L173.463 21.412ZM170.915 18.836L170.026 19.2946L170.03 19.3033L170.035 19.3118L170.915 18.836ZM170.831 10.38L169.928 9.95003L169.922 9.96186L170.831 10.38ZM173.155 7.664L172.622 6.81774L172.615 6.82231L173.155 7.664ZM173.827 9.876L173.084 9.20603L173.083 9.20703L173.827 9.876ZM172.623 13.012L171.627 12.9152L171.521 14.012H172.623V13.012ZM180.267 13.012V14.012H181.267V13.012H180.267ZM179.875 10.772L178.95 11.1527L178.95 11.1527L179.875 10.772ZM178.671 9.288L178.089 10.1017L178.106 10.1134L178.122 10.1245L178.671 9.288ZM176.655 7.712C177.795 7.712 178.708 7.95883 179.436 8.40485L180.481 6.69915C179.38 6.02517 178.09 5.712 176.655 5.712V7.712ZM179.444 8.40949C180.2 8.86322 180.778 9.50326 181.182 10.3594L182.991 9.50462C182.425 8.30741 181.583 7.36078 180.473 6.69451L179.444 8.40949ZM181.192 10.3792C181.614 11.2223 181.843 12.2485 181.843 13.488H183.843C183.843 12.0021 183.567 10.6577 182.981 9.48479L181.192 10.3792ZM181.843 13.488V14.972H183.843V13.488H181.843ZM182.843 13.972H172.567V15.972H182.843V13.972ZM171.567 14.994C171.607 16.8391 172.077 18.4048 173.117 19.5397L174.592 18.1883C173.989 17.5312 173.6 16.5023 173.566 14.95L171.567 14.994ZM173.132 19.5556C174.203 20.6735 175.655 21.18 177.355 21.18V19.18C176.067 19.18 175.186 18.8091 174.577 18.1724L173.132 19.5556ZM177.355 21.18C178.363 21.18 179.281 21.0913 180.099 20.9024L179.65 18.9536C179.012 19.1007 178.25 19.18 177.355 19.18V21.18ZM180.117 20.8981C180.921 20.6972 181.737 20.4179 182.564 20.0631L181.777 18.2249C181.036 18.5421 180.322 18.7854 179.632 18.9579L180.117 20.8981ZM181.171 19.144V21.3H183.171V19.144H181.171ZM181.769 20.3844C181.063 20.6941 180.376 20.9135 179.706 21.0474L180.099 23.0086C180.923 22.8438 181.747 22.5779 182.573 22.2156L181.769 20.3844ZM179.683 21.0524C179.028 21.1998 178.219 21.28 177.243 21.28V23.28C178.32 23.28 179.284 23.1922 180.122 23.0036L179.683 21.0524ZM177.243 21.28C175.963 21.28 174.867 21.0201 173.928 20.5268L172.997 22.2972C174.261 22.9613 175.685 23.28 177.243 23.28V21.28ZM173.934 20.5301C173.034 20.049 172.322 19.3363 171.794 18.3602L170.035 19.3118C170.739 20.613 171.726 21.6177 172.991 22.2939L173.934 20.5301ZM171.803 18.3774C171.296 17.3955 171.019 16.1525 171.019 14.608H169.019C169.019 16.3861 169.338 17.9618 170.026 19.2946L171.803 18.3774ZM171.019 14.608C171.019 13.0722 171.272 11.8127 171.739 10.7981L169.922 9.96186C169.307 11.2993 169.019 12.8585 169.019 14.608H171.019ZM171.733 10.8099C172.222 9.78355 172.879 9.02896 173.694 8.50569L172.615 6.82231C171.452 7.56837 170.559 8.62445 169.928 9.95007L171.733 10.8099ZM173.687 8.51023C174.518 7.9871 175.496 7.712 176.655 7.712V5.712C175.163 5.712 173.807 6.07157 172.622 6.81777L173.687 8.51023ZM176.627 7.728C175.212 7.728 173.992 8.19998 173.084 9.20603L174.569 10.546C175.042 10.0213 175.69 9.728 176.627 9.728V7.728ZM173.083 9.20703C172.226 10.1593 171.772 11.4309 171.627 12.9152L173.618 13.1088C173.735 11.9051 174.083 11.0861 174.57 10.545L173.083 9.20703ZM172.623 14.012H180.267V12.012H172.623V14.012ZM181.267 13.012C181.267 12.0544 181.121 11.1729 180.799 10.3912L178.95 11.1527C179.151 11.6405 179.267 12.2523 179.267 13.012H181.267ZM180.799 10.3912C180.466 9.5821 179.939 8.92353 179.219 8.45154L178.122 10.1245C178.485 10.3618 178.76 10.6926 178.95 11.1527L180.799 10.3912ZM179.252 8.47427C178.514 7.94735 177.611 7.728 176.627 7.728V9.728C177.322 9.728 177.782 9.88198 178.089 10.1017L179.252 8.47427Z" fill="black" fill-opacity="0.5" mask="url(#path-1-outside-1_1_6)"/>
</svg>
