<svg id="Layer_1" data-name="Layer 1" xmlns="http://www.w3.org/2000/svg" viewBox="0 0 354.24 37.19"><path d="M260.7,130.15v0m-5.82,29.47a8,8,0,0,1-9.13-3.86,8.36,8.36,0,0,1,2.9-11.21,7.78,7.78,0,0,1,11.19,3.57,10.77,10.77,0,0,1,.58,1.65,19.42,19.42,0,0,1,.27,2,8,8,0,0,1-5.81,7.82m12.21-29.29c0-1-.35-1.39-1.23-1.4-1.38,0-2.75,0-4.12,0-.94,0-1.06.28-1,1.28,0,.06,0,10.54,0,10.61s-.08.25-.32,0a10.31,10.31,0,0,0-4.11-2.5,11.72,11.72,0,0,0-7-.41,12.43,12.43,0,0,0-7.75,4.52,14.75,14.75,0,0,0-2.49,13.64c1.72,6.06,6.51,9.23,12.22,9.74A10.93,10.93,0,0,0,260,163a.63.63,0,0,1,.52-.17c.13.05.24.29.27.46a3.61,3.61,0,0,1,0,.66c0,.93.37,1.32,1.29,1.33s1.92,0,2.88,0h0c2,0,2.09-.1,2.09-2V140c0-.13,0-6.83,0-9.68" transform="translate(-84.76 -128.91)"/><path d="M199.89,139.69v0Zm-5.82,19.93a8,8,0,0,1-9.13-3.86,8.36,8.36,0,0,1,2.9-11.21A7.78,7.78,0,0,1,199,148.12a9.76,9.76,0,0,1,.57,1.65c.15.66.19,1.35.28,2a8,8,0,0,1-5.81,7.82m12.21-19.74c0-1-.35-1.15-1.24-1.17-1.37,0-2.74,0-4.12,0-.79,0-1,0-1,.65,0,.15,0,1.08,0,1.32s0,.31-.31,0a9.57,9.57,0,0,0-3.51-2.21,13.07,13.07,0,0,0-7.58-.56,12.38,12.38,0,0,0-7.75,4.52,14.75,14.75,0,0,0-2.5,13.64c1.72,6.06,6.52,9.24,12.23,9.74a11,11,0,0,0,8.74-2.81.61.61,0,0,1,.51-.17c.14.05.24.29.28.46a2.91,2.91,0,0,1,0,.66c0,.93.37,1.32,1.3,1.34h2.88c2,0,2.09-.11,2.09-2,0-8.26,0-20.55,0-23.39" transform="translate(-84.76 -128.91)"/><path d="M270.55,131.31c.91-1.75,3.79-2,4.87-1,1.59,1.58.8,4-4.71,6.94-.34.18-.74-.16-.76-.54,0-1.25-.05-4.55.6-5.44" transform="translate(-84.76 -128.91)"/><path d="M114.51,131.31c.92-1.75,3.8-2,4.88-1,1.59,1.58.79,4-4.71,6.94-.34.18-.74-.16-.76-.54,0-1.25,0-4.55.59-5.44" transform="translate(-84.76 -128.91)"/><path d="M210,151.87V140.12c0-1,.3-1.27,1.33-1.28s2.22,0,3.33,0,1.52.33,1.56,1.46a1.46,1.46,0,0,0,0,.42c0,.18.13.44.26.49a.8.8,0,0,0,.56-.18,27.63,27.63,0,0,1,2.61-1.75,11.92,11.92,0,0,1,7.28-1.11,10.91,10.91,0,0,1,4.9,1.86,8.73,8.73,0,0,1,3.52,5.51,44.78,44.78,0,0,1,.6,9.25c0,3,0,5.93,0,8.89a4.79,4.79,0,0,1,0,.66.9.9,0,0,1-.8.84,4.64,4.64,0,0,1-.64.07c-1.3,0-2.61,0-3.92,0-.95,0-1.36-.23-1.37-1.39,0-4.25,0-8.5,0-12.75,0-1.44,0-6.95-6.27-6.95-3.19,0-6.31,2.7-6.31,7,0,4.62,0,7.61,0,12.23,0,.24,0,.48,0,.72,0,.77-.31,1.13-1.1,1.16-1.47.05-2.94.06-4.4,0-.78,0-1.08-.41-1.08-1.23V151.87" transform="translate(-84.76 -128.91)"/><path d="M280,143.19a4.86,4.86,0,0,0-2.7.79,1.94,1.94,0,0,0-.83,1.68v.1c.07,1.57,2.7,2.26,5.75,3.05l.57.15c4.8,1.22,9.27,3,9.47,7.84v.1a7.81,7.81,0,0,1-2.94,6.73,12.93,12.93,0,0,1-7.68,2.46H281a17,17,0,0,1-10.25-3.49c-.83-.71-.64-4.46-.64-5.23a.86.86,0,0,1,1.46-.65,17.19,17.19,0,0,0,10,3.52,5.77,5.77,0,0,0,3-.58,2.08,2.08,0,0,0,.93-1.86v-.11c-.07-1.68-2.62-2.55-5.57-3.27l-.68-.17c-4.5-1-8.57-2.49-9.28-7.64v-.1a7.55,7.55,0,0,1,2.44-6.27,11.46,11.46,0,0,1,7.5-2.65h.77a16.57,16.57,0,0,1,9.2,2.51c1,.55.64,4.46.64,5.23s-.75,1.09-1.46.66c-5.3-3.27-9.08-2.81-9.08-2.81" transform="translate(-84.76 -128.91)"/><path d="M175,147.4v16.31c0,1.6-.14,1.76-1.75,1.77-1,0-2.11,0-3.16,0-1.25,0-1.47-.27-1.5-1.51V131.54c0-1.79.09-1.9,1.92-1.91,1,0,2.06,0,3.09,0s1.4.26,1.4,1.41c0,2.73,0,5.47,0,8.21v8.15" transform="translate(-84.76 -128.91)"/><path d="M148.58,147.39v16.06c0,1.6-.15,1.76-1.76,1.77h-3.15c-1.25,0-1.47-.27-1.5-1.5,0-.16,0-.32,0-.47V131.53c0-1.78.09-1.89,1.91-1.9,1,0,2.06,0,3.1,0s1.39.26,1.39,1.41c0,2.73,0,5.47,0,8.2Z" transform="translate(-84.76 -128.91)"/><path d="M110.51,129.63c.66,0,.93.26,1,.39a.85.85,0,0,1-.16.62c-3,4.2-6,8-9,12.17-.85,1.18-1.66,2.38-2.5,3.56a.78.78,0,0,0,0,1.06c3.22,4.59,6.44,9.61,9.67,14.19.61.87,1.29,1.69,1.9,2.54a.81.81,0,0,1,.18.67.92.92,0,0,1-.62.39c-.63.08-4.29.05-5.41,0a2.63,2.63,0,0,1-1-.15,2,2,0,0,1-1-.78c-2.57-3.64-5.16-7.69-7.7-11.34-1.28-1.83-2.24-3.36-3.48-5.22a1.32,1.32,0,0,1,0-1.52c1.84-2.67,3.33-5,5.18-7.71s4-5.15,6-7.95c.48-.67.68-1,1.5-.92s4.75,0,5.41,0" transform="translate(-84.76 -128.91)"/><path d="M91.17,147.39v16.06c0,1.6-.14,1.76-1.75,1.77H86.26c-1.24,0-1.47-.27-1.49-1.5,0-.16,0-.32,0-.47V131.53c0-1.78.09-1.89,1.92-1.9,1,0,2.06,0,3.09,0s1.4.26,1.4,1.41c0,2.73,0,5.47,0,8.2v8.15" transform="translate(-84.76 -128.91)"/><path d="M165.21,139c.23,0,.57.11.65.26s-.09.47-.22.65c-2.77,3.65-5.54,6.85-8.31,10.48-.63.83-.61.83,0,1.69,1.93,2.77,4.28,6,6.21,8.73.84,1.19,1.25,1.7,2.09,2.88.12.16,1,1.55-.51,1.55-1.05,0-1.54,0-2.59,0h-2.62a1.61,1.61,0,0,1-1.46-.75c-2.75-4-5.92-8.36-8.71-12.29a1.31,1.31,0,0,1,0-1.78c1.62-2.19,3.2-4,4.82-6.17,1.12-1.52,2.28-3,3.39-4.52a1.84,1.84,0,0,1,1.63-.75c1,0,4.2,0,5.6,0" transform="translate(-84.76 -128.91)"/><path d="M113.71,151.83V140c0-1,.18-1.25,1.15-1.26,1.44,0,2.51,0,4,0,1,0,1,.51,1.09.92a5.88,5.88,0,0,1,0,.6v23.26c0,1.55-.12,1.67-1.66,1.68a28.64,28.64,0,0,1-3.21,0c-1.21-.07-1.35-.14-1.35-1.36,0-4,0-8,0-12Z" transform="translate(-84.76 -128.91)"/><path d="M139.51,139.32c0-1.09-3.77-1.36-6.5,0a27.52,27.52,0,0,0-2.55,1.76c-.16.1-.41.23-.55.17s-.22-.3-.26-.49a1.4,1.4,0,0,1,0-.41c0-1.13-.36-1.45-1.53-1.47h-3.27c-1,0-1.3.3-1.3,1.29,0,4,0,7.75,0,11.74s0,8,0,12.08c0,.82.3,1.19,1.06,1.21,1.44,0,2.88.05,4.32,0,.78,0,1-.39,1.08-1.16,0-.24,0-.48,0-.71,0-4.63,0-7.56,0-12.18,0-4.25,2.6-6.27,6-6.53a25.8,25.8,0,0,1,2.65-.08.74.74,0,0,0,.79-.52,28.81,28.81,0,0,0,.11-4.73" transform="translate(-84.76 -128.91)"/><path d="M335.87,129.6h-3.73a1.28,1.28,0,0,0-1.28,1.28v13.4H314.35v-13.4a1.27,1.27,0,0,0-1.27-1.28h-3.73a1.28,1.28,0,0,0-1.28,1.28v33a1.28,1.28,0,0,0,1.28,1.28h3.73a1.27,1.27,0,0,0,1.27-1.28V150.31h16.51V163.9a1.28,1.28,0,0,0,1.28,1.28h3.73a1.27,1.27,0,0,0,1.27-1.28v-33a1.27,1.27,0,0,0-1.27-1.28" transform="translate(-84.76 -128.91)"/><path d="M354,159.94a7.9,7.9,0,0,1-7.74-8.21v-.09c0-4.66,3.29-8.17,7.65-8.17a8,8,0,0,1,7.78,8.26v.09c0,4.63-3.3,8.12-7.69,8.12m0-22.22a13.86,13.86,0,0,0-14,14v.09a14,14,0,0,0,28-.09v-.09a13.8,13.8,0,0,0-14-13.92" transform="translate(-84.76 -128.91)"/><path d="M400.17,137.72a10.72,10.72,0,0,0-8.47,3.85,10.19,10.19,0,0,0-14.56-1.44v-.62a1.27,1.27,0,0,0-1.27-1.27h-3.63a1.27,1.27,0,0,0-1.28,1.27V163.9a1.28,1.28,0,0,0,1.28,1.28h3.63a1.27,1.27,0,0,0,1.27-1.28V150c0-3.71,2.32-6.41,5.52-6.41s5,2.18,5,6V163.9a1.27,1.27,0,0,0,1.27,1.28h3.58a1.28,1.28,0,0,0,1.28-1.28V149.84c0-3.75,2.2-6.27,5.47-6.27,2.31,0,5.05,1.05,5.05,6.08V163.9a1.27,1.27,0,0,0,1.27,1.28h3.64a1.27,1.27,0,0,0,1.27-1.28V148.8c0-6.73-4.05-11.08-10.33-11.08" transform="translate(-84.76 -128.91)"/><path d="M426.26,143.33c4.32,0,5.8,3.43,6.3,5.66h-12.7c.86-3.39,3.35-5.66,6.4-5.66m.1-5.61c-7.28,0-13,6.15-13,14s5.78,14,13.45,14a13.92,13.92,0,0,0,11-5,1.28,1.28,0,0,0,.32-.92,1.31,1.31,0,0,0-.42-.88l-2.26-2a1.3,1.3,0,0,0-1.78.07,8.78,8.78,0,0,1-6.77,3.05,7.12,7.12,0,0,1-7.07-5.56h17.83A1.27,1.27,0,0,0,439,153.3c.05-.62.05-1,.05-1.38,0-8.36-5.2-14.2-12.64-14.2" transform="translate(-84.76 -128.91)"/></svg>