<svg width="24" height="24" viewBox="0 0 24 24" fill="none" xmlns="http://www.w3.org/2000/svg">
<path d="M17.8 18.8C18.357 18.8 18.8911 19.0213 19.2849 19.4151C19.6787 19.8089 19.9 20.343 19.9 20.9C19.9 21.457 19.6787 21.9911 19.2849 22.3849C18.8911 22.7788 18.357 23 17.8 23C16.6345 23 15.7 22.055 15.7 20.9C15.7 19.7345 16.6345 18.8 17.8 18.8ZM1 2H4.4335L5.4205 4.1H13.614C13.614 4.5 13.614 5.92152 13.614 6.2L20 9.5L19 11L18.115 12.4685C17.758 13.109 17.065 13.55 16.2775 13.55H8.455L7.51 15.2615L7.4785 15.3875C7.4785 15.4571 7.50616 15.5239 7.55538 15.5731C7.60461 15.6223 7.67138 15.65 7.741 15.65H19.9V17.75H7.3C6.1345 17.75 5.2 16.805 5.2 15.65C5.2 15.2825 5.2945 14.936 5.452 14.642L6.88 12.0695L3.1 4.1H1V2ZM7.3 18.8C7.85695 18.8 8.3911 19.0213 8.78492 19.4151C9.17875 19.8089 9.4 20.343 9.4 20.9C9.4 21.457 9.17875 21.9911 8.78492 22.3849C8.3911 22.7788 7.85695 23 7.3 23C6.1345 23 5.2 22.055 5.2 20.9C5.2 19.7345 6.1345 18.8 7.3 18.8ZM16.1504 11.45L17.5 9.5H18.5H20L13.614 6.2H6.397L8.875 11.45H16.1504Z" fill="black"/>
<path d="M22.7598 6.20039L20 6.20039L20 8.5L17.8873 8.5L17.8873 6.20039L16.5 6.20039L15.075 6.20039L15.075 4.15365L17.8873 4.15365L17.8873 1.41096L20 1.41096L20 4.15365L22.7598 4.15365L22.7598 6.20039Z" fill="black"/>
</svg>
