<?xml version="1.0" encoding="UTF-8"?>
<!-- Generator: Adobe Illustrator 27.0.0, SVG Export Plug-In . SVG Version: 6.00 Build 0)  -->
<svg xmlns="http://www.w3.org/2000/svg" xmlns:xlink="http://www.w3.org/1999/xlink" version="1.1" id="Layer_1" x="0px" y="0px" viewBox="0 0 231 76" style="enable-background:new 0 0 231 76;" xml:space="preserve">
<style type="text/css">
	.st0{fill:#FFFFFF;}
</style>
<g>
	<g>
		<path class="st0" d="M6.2,12.6c-1.8,0-3.2-0.6-4.4-1.8S0,8.1,0,6.4c0-1.8,0.6-3.3,1.8-4.5S4.5,0,6.2,0C8,0,9.5,0.6,10.7,1.9    c1.2,1.2,1.8,2.7,1.8,4.5s-0.6,3.2-1.8,4.5C9.5,12,8,12.6,6.2,12.6z M11.9,59.2H0.6v-41h11.3C11.9,18.2,11.9,59.2,11.9,59.2z"></path>
	</g>
	<g>
		<path class="st0" d="M52.3,18.2H62v27.1c0,3.1,0,5.9-0.1,8.4c-0.1,2.4-0.3,4.7-0.6,6.6c-0.3,2-0.9,3.7-1.6,5.2    c-0.7,1.5-1.8,3-3.1,4.3c-2.4,2.4-5.1,4-8.1,4.9S42.4,76,39.1,76c-2.8,0-5.4-0.3-7.9-1s-4.7-1.6-6.7-2.7V61.6    c0.5,0.8,1.2,1.5,2.1,2.1s1.9,1.1,3.1,1.6c1.2,0.4,2.4,0.8,3.8,1s2.7,0.4,4.1,0.4c1.8,0,3.5-0.2,5.1-0.7s3-1.2,4.1-2.3    c1.2-1,2.1-2.4,2.8-3.9c0.7-1.6,1-3.5,1-5.7v-0.8c-1.6,1.4-3.4,2.6-5.5,3.4C43,57.6,40.7,58,38.3,58c-2.7,0-5.3-0.5-7.6-1.6    s-4.3-2.5-6-4.4c-1.7-1.8-3-4-4-6.5s-1.4-5.2-1.4-8s0.5-5.4,1.4-7.9c1-2.5,2.3-4.6,4-6.5c1.7-1.8,3.7-3.3,6-4.4s4.9-1.6,7.6-1.6    c2.6,0,4.9,0.3,7,1s3.9,1.8,5.3,3.3L52.3,18.2z M40.7,47.8c1.8,0,3.3-0.3,4.5-1c1.3-0.6,2.3-1.4,3.1-2.4s1.4-2.1,1.8-3.3    c0.4-1.2,0.6-2.4,0.6-3.5c0-1.3-0.2-2.5-0.6-3.8c-0.4-1.2-1-2.3-1.8-3.3s-1.9-1.7-3.1-2.4c-1.3-0.6-2.7-0.9-4.4-0.9    c-1.4,0-2.7,0.3-3.9,0.8c-1.2,0.6-2.3,1.3-3.2,2.2c-0.9,0.9-1.6,2-2.1,3.3c-0.5,1.2-0.8,2.6-0.8,4s0.3,2.8,0.8,4    c0.5,1.2,1.2,2.3,2.1,3.3s2,1.7,3.2,2.2C37.9,47.5,39.2,47.8,40.7,47.8z"></path>
	</g>
	<g>
		<path class="st0" d="M90.3,18.2c1.5,0,3.2,0.2,5.1,0.7c1.9,0.4,3.6,1.3,5.2,2.5s3,2.9,4.1,5s1.7,4.9,1.7,8.3v24.4H95.1V35.2    c0-1.3-0.2-2.3-0.6-3.2c-0.4-0.9-1-1.6-1.6-2.1c-0.7-0.5-1.5-0.9-2.3-1.2c-0.9-0.2-1.8-0.4-2.6-0.4c-0.7,0-1.5,0.1-2.3,0.4    c-0.8,0.2-1.6,0.6-2.4,1.2c-0.7,0.5-1.4,1.3-1.8,2.1c-0.5,0.9-0.7,1.9-0.7,3.1V59H69.2V18.2h9.7l1.6,3.1c1.3-0.9,2.8-1.7,4.4-2.3    C86.6,18.5,88.4,18.2,90.3,18.2z"></path>
	</g>
	<g>
		<path class="st0" d="M120.2,12.6c-1.8,0-3.2-0.6-4.4-1.8c-1.2-1.2-1.8-2.7-1.8-4.5s0.6-3.3,1.8-4.5c1.2-1.2,2.7-1.9,4.4-1.9    c1.8,0,3.2,0.6,4.4,1.9c1.2,1.2,1.8,2.7,1.8,4.5s-0.6,3.2-1.8,4.5C123.5,12,122,12.6,120.2,12.6z M125.9,59.2h-11.3v-41h11.3V59.2    L125.9,59.2z"></path>
	</g>
	<g>
		<path class="st0" d="M151.2,49c1.2,1,2.7,1.6,4.6,1.6c1.5,0,3.1-0.3,4.6-0.9v9.5c-1.4,0.4-2.8,0.8-4.4,1.1    c-1.5,0.3-3.1,0.4-4.6,0.4c-1.8,0-3.4-0.2-5-0.7c-1.6-0.4-3-1.2-4.3-2.3s-2.3-2.5-3-4.3s-1.1-4-1.1-6.6V28.4h-5.8v-7.7l5.8-2.5    V9.1h11.3v9.2h11v10.1h-11v16.1C149.4,46.5,150,48,151.2,49z"></path>
	</g>
	<g>
		<path class="st0" d="M172.5,12.6c-1.8,0-3.2-0.6-4.4-1.8s-1.8-2.7-1.8-4.5s0.6-3.3,1.8-4.5s2.7-1.9,4.4-1.9c1.8,0,3.2,0.6,4.4,1.9    c1.2,1.2,1.8,2.7,1.8,4.5s-0.6,3.2-1.8,4.5C175.7,12,174.2,12.6,172.5,12.6z M178.2,59.2h-11.3v-41h11.3V59.2L178.2,59.2z"></path>
	</g>
	<g>
		<path class="st0" d="M218.8,18.2H231l-16.4,40.9H200l-16.4-40.9h12.2l11.6,30.3L218.8,18.2z"></path>
	</g>
</g>
</svg>
